<svg>
      <g
         inkscape:label="Clip"
         id="g846">
        <path
           style="fill:#000000"
           d="m 243.96495,423.8747 c -12.00639,-7.70765 -53.05272,-46.32919 -71.89302,-67.64597 -38.88257,-43.99354 -62.48379,-85.94791 -68.62849,-121.99646 -2.05491,-12.0553 -1.51512,-41.16857 0.9642,-52.00354 10.20868,-44.61353 38.84333,-81.92655 78.55468,-102.362449 13.09263,-6.737611 25.3792,-11.096152 40.30782,-14.298796 14.72532,-3.159033 43.70761,-3.173706 58.35309,-0.02954 41.18415,8.841609 74.05244,30.959573 96.9595,65.246665 10.18558,15.24569 17.06216,31.43472 21.6015,50.85482 2.91687,12.47885 3.67106,41.33213 1.39673,53.43531 -8.38043,44.59789 -43.02138,98.19337 -97.61955,151.03419 -14.92047,14.44023 -36.40797,33.28484 -43.18089,37.8698 -5.51245,3.73168 -10.89245,3.6984 -16.81557,-0.10403 z m 22.55422,-23.70916 c 50.7455,-44.5473 86.23289,-86.79054 105.39561,-125.46012 12.00355,-24.22267 16.40259,-40.5944 16.38429,-60.97669 -0.0333,-37.04168 -13.51109,-69.53724 -39.64958,-95.59663 C 329.10645,98.648218 307.92946,86.941958 280.63045,80.532417 267.47017,77.442512 238.73304,77.40313 225.01917,80.456207 169.89564,92.728188 130.1078,133.1515 118.44873,188.72873 c -2.17106,10.34914 -2.44068,32.10178 -0.53299,43 5.62817,32.15243 26.2921,69.59057 60.16241,109 16.73645,19.4735 54.50569,55.90216 71.29789,68.76723 3.54188,2.71354 3.2301,2.88323 17.14313,-9.33042 z m -21.5,-72.06512 c -16.92584,-1.30319 -31.82109,-5.60502 -47.32294,-13.66712 -10.27565,-5.34409 -12.24217,-7.31684 -11.24686,-11.28248 1.08641,-4.32862 4.44984,-3.99383 14.665,1.45973 18.67143,9.96809 35.91263,13.81151 57.56334,12.83207 32.11632,-1.4529 59.87035,-16.41037 79.70428,-42.95501 13.33341,-17.8447 20.63718,-39.87167 20.63718,-62.23836 0,-26.98755 -8.88145,-50.42819 -27.14995,-71.65631 -5.21525,-6.06015 -5.90075,-8.60337 -3.02131,-11.20922 2.55891,-2.31578 3.58584,-2.10624 7.81681,1.59501 10.68399,9.34633 24.16722,33.17709 29.06015,51.36195 2.446,9.09071 2.66242,11.46047 2.68391,29.38805 0.0217,18.11797 -0.16872,20.20873 -2.68704,29.5 -11.59995,42.79772 -46.77508,75.94039 -89.60249,84.42516 -10.0202,1.98515 -23.41092,3.03855 -31.10008,2.44653 z m -74.50343,-33.50883 c -4.43419,-3.89327 -5.79425,-6.34963 -4.96404,-8.96539 0.81035,-2.55318 4.38117,-3.96867 6.80472,-2.69742 3.14343,1.64885 7.60272,7.19461 7.63344,9.49325 0.0262,1.96013 -3.22685,5.3067 -5.1584,5.3067 -0.40848,0 -2.35056,-1.41171 -4.31572,-3.13714 z m 44.50343,-11.44421 c -7.82949,-2.06374 -15.68016,-7.91517 -20.75,-15.46581 -6.94158,-10.33829 -5.41508,-13.66081 6.50311,-14.1545 l 7.20246,-0.29834 -4.2873,-6.15402 c -11.17217,-16.03659 -18.539,-37.14665 -18.78946,-53.84227 -0.10861,-7.23915 1.02913,-9.86703 5.43501,-12.55348 3.05736,-1.86421 5.51101,-1.94275 60.68618,-1.94275 55.91232,0 57.5914,0.0557 60.81018,2.01815 1.82059,1.10999 3.93736,3.51924 4.70393,5.3539 1.36198,3.25967 1.50733,3.32482 6.37429,2.85717 6.30123,-0.60547 12.81012,2.30927 15.61395,6.99206 2.73276,4.56409 2.63134,13.90285 -0.20929,19.27124 -4.30311,8.13228 -14.63893,16.10494 -27.33733,21.08698 -6.54572,2.56813 -7.2416,3.15536 -11.93319,10.07009 l -4.98212,7.34293 h 7.47979 c 6.25,0 7.82287,0.34308 9.56645,2.08666 2.70288,2.70288 2.02232,5.68923 -2.9428,12.91334 -4.91887,7.15682 -13.82446,13.25809 -21.64411,14.8285 -8.89242,1.78586 -64.37624,1.46781 -71.49975,-0.40985 z m 70.5685,-10.8847 c 2.71232,-0.80632 6.5065,-2.81304 8.4315,-4.45936 l 3.5,-2.99331 -13.67857,-0.0406 c -11.06317,-0.0329 -13.97904,-0.3411 -15.25,-1.61207 -1.84273,-1.84273 -1.94264,-2.86643 -0.53625,-5.49431 0.76993,-1.43861 2.11522,-1.93769 5.25,-1.94763 3.95542,-0.0125 4.52654,-0.3972 9.27972,-6.25 7.32409,-9.01848 11.08495,-14.79173 14.98352,-23.001 3.79181,-7.98449 8.04623,-23.44071 8.59779,-31.23563 l 0.35379,-5 -55.25,-0.25847 -55.25,-0.25846 v 3.94309 c 0,5.32275 2.40715,16.41454 5.45635,25.142 3.91377,11.20207 10.80046,22.50956 20.2631,33.27063 l 3.21945,3.66117 h 8.83055 c 9.29792,0 11.23055,0.77439 11.23055,4.5 0,4.17381 -1.49585,4.49802 -20.95,4.54064 l -18.55,0.0406 3.5,2.99767 c 6.19386,5.30489 9.57262,5.77485 42.0685,5.8514 23.22956,0.0547 30.62572,-0.24464 34.5,-1.3964 z m -34.3685,-8.73395 c -0.66,-0.66 -1.2,-2.145 -1.2,-3.3 0,-2.8616 1.86348,-4.5 5.11821,-4.5 4.36403,0 5.88179,1.00818 5.88179,3.90699 0,3.52911 -1.68888,5.09301 -5.5,5.09301 -1.705,0 -3.64,-0.54 -4.3,-1.2 z m 67.98588,-44.08202 c 7.09755,-4.81332 11.34848,-11.31632 10.26811,-15.70796 -0.73294,-2.97933 -2.10313,-3.9792 -5.45399,-3.97997 -5.50127,-0.001 -7.09354,1.91676 -9.52196,11.46995 -1.25829,4.95 -2.60375,9.7875 -2.98991,10.75 -1.10333,2.75004 0.86248,2.10343 7.69775,-2.53202 z m -164.80732,54.7515 c -3.84053,-3.84054 -11.94552,-21.73678 -14.93148,-32.96948 -3.26938,-12.29893 -4.47518,-35.79529 -2.47702,-48.26739 5.01272,-31.28826 24.34156,-60.79908 51.56378,-78.7263 32.33026,-21.291122 72.80137,-25.005042 109.03555,-10.00587 18.80031,7.78242 26.8015,14.72867 22.23061,19.29956 -2.06265,2.06265 -4.87391,1.34643 -12.71211,-3.23864 -17.24887,-10.08997 -33.83633,-14.57171 -54.08789,-14.61394 -26.62921,-0.0555 -48.35253,7.66024 -68.90292,24.47316 -38.61106,31.58891 -49.3587,86.67885 -25.61726,131.30815 5.12073,9.62598 5.43729,11.51549 2.29766,13.71457 -2.94791,2.06479 -3.43433,1.99077 -6.39892,-0.97382 z m 66.1023,-107.9211 c -6.16687,-6.53878 -5.65958,-12.75402 1.73868,-21.30204 4.29811,-4.96608 4.31221,-6.86856 0.0844,-11.38842 -3.46177,-3.70093 -2.86732,-7.35792 1.19606,-7.35792 2.47653,0 3.5671,0.84855 6.25,4.86301 4.1991,6.28318 4.31679,10.86847 0.41672,16.23695 -1.5583,2.14502 -3.5833,4.51764 -4.5,5.27248 -2.48164,2.04349 -2.06359,6.40609 0.87876,9.17029 3.2424,3.04607 3.04858,7.3022 -0.35451,7.78456 -1.61289,0.22861 -3.33442,-0.75994 -5.71011,-3.27891 z m 52.18179,2.0175 c -8.76735,-6.74775 -8.86553,-17.36007 -0.2216,-23.95312 4.35006,-3.31795 4.43653,-5.10122 0.51018,-10.52139 -3.44483,-4.75544 -3.26793,-8.09137 0.42907,-8.09137 2.30231,0 6.49973,3.7957 8.49751,7.68426 0.61721,1.20134 1.12219,4.04078 1.12219,6.30986 0,3.57915 -0.66226,4.82585 -5,9.41236 -2.75,2.90772 -5,6.02949 -5,6.93726 0,0.90778 1.66142,3.48949 3.69204,5.73715 2.93815,3.25217 3.47883,4.42689 2.64788,5.75288 -1.364,2.17658 -4.37196,2.50638 -6.67727,0.73211 z m -25.62611,-3.18859 c -8.03351,-6.75975 -7.91976,-14.22281 0.38595,-25.32157 3.27188,-4.37216 3.2969,-8.71655 0.0775,-13.46058 -2.96911,-4.37523 -3.19709,-7.23912 -0.64088,-8.05043 2.689,-0.85345 4.36577,0.0748 6.73317,3.72724 5.43229,8.38111 5.42306,14.9346 -0.0311,22.07993 -6.46221,8.46595 -6.94183,12.04216 -2.04532,15.25048 2.99362,1.9615 3.29115,5.89536 0.55658,7.35886 -1.53871,0.82349 -2.55459,0.50397 -5.03592,-1.58393 z"
           id="path837" />
      </g>
    </g>
    <path
       style="fill:#ffffff;fill-rule:evenodd;stroke-width:2.15235;stroke-linejoin:round;paint-order:stroke fill markers"
       d="m 246.7315,406.87268 c -19.56147,-15.65111 -56.36482,-51.9104 -73.1014,-72.02074 -34.71436,-41.71211 -54.14604,-80.81868 -56.40496,-113.51588 -1.07717,-15.59175 0.50234,-30.76925 4.65783,-44.75719 13.03822,-43.88828 45.32494,-77.306888 88.53844,-91.642329 16.15485,-5.359134 26.55539,-6.710708 47.55126,-6.179397 14.30894,0.362094 19.76539,1.104679 30.23971,4.115413 24.089,6.924132 43.38757,18.530433 61.18529,36.797293 20.42847,20.96696 31.68584,42.84643 36.79718,71.51783 1.77184,9.93887 1.9251,33.12811 0.27768,42.01278 -4.24116,22.87294 -18.5931,52.46221 -39.09236,80.59638 -19.6887,27.02171 -48.1372,57.17279 -81.84322,86.74138 -8.61699,7.55925 -11.89831,10.05404 -13.22377,10.05404 -0.51303,0 -3.02479,-1.67381 -5.58168,-3.71958 z m 22.06121,-79.71157 c 27.9681,-3.95475 52.63399,-17.13738 71.30602,-38.10933 13.04625,-14.65322 23.46093,-35.06704 27.24424,-53.40142 0.94188,-4.56446 1.09413,-7.78825 1.10057,-23.30355 0.009,-20.75672 -0.37948,-24.02385 -4.22001,-35.52449 -6.26605,-18.76396 -19.43952,-40.39373 -28.7754,-47.2469 -3.32889,-2.44363 -4.50364,-2.50593 -6.8002,-0.36061 -3.14616,2.93895 -2.4963,4.95022 4.26545,13.20111 14.97231,18.26967 23.03908,37.14216 25.25997,59.09658 2.8731,28.4018 -5.89337,56.10027 -24.91381,78.71748 -14.78937,17.58605 -35.0335,29.85566 -57.0767,34.59318 -15.8868,3.41439 -34.73407,3.15494 -49.93348,-0.68736 -7.9046,-1.99822 -11.01223,-3.20474 -22.53887,-8.75058 -14.12041,-6.79379 -17.49181,-6.96426 -17.49181,-0.88445 0,2.22967 0.28156,2.86265 1.99024,4.47414 2.29426,2.16376 15.15979,8.80971 23.03211,11.89771 6.71041,2.63222 18.62997,5.69532 25.37628,6.52122 2.81891,0.3451 5.76595,0.73897 6.54898,0.87527 2.69617,0.46933 19.65793,-0.26404 25.62642,-1.108 z m -90.66493,-31.00293 c 0.9228,-0.92279 1.80914,-2.18004 1.96967,-2.79387 0.47438,-1.81405 -1.47921,-5.30303 -4.59099,-8.19916 -2.48413,-2.312 -3.24468,-2.70501 -5.2346,-2.70501 -3.11988,0 -5.1238,1.93112 -5.1238,4.93766 0,1.91182 0.45463,2.58792 4.22954,6.29013 4.82229,4.72939 6.12365,5.09678 8.75018,2.47025 z m 111.16607,-13.00205 c 9.18426,-3.03721 17.56782,-10.3211 22.04227,-19.15098 2.03467,-4.01524 1.95919,-6.21186 -0.29078,-8.46182 -1.79617,-1.79618 -1.91857,-1.82703 -8.08604,-2.03812 -6.1965,-0.2121 -6.26226,-0.22891 -6.26226,-1.60076 0,-1.82297 5.00994,-9.20218 7.96474,-11.73138 1.28127,-1.09673 3.537,-2.44736 5.01272,-3.00142 13.11551,-4.92423 24.77553,-13.78163 28.73795,-21.83047 1.76414,-3.58345 1.84951,-4.06177 1.84951,-10.36247 0,-6.3637 -0.0634,-6.70825 -1.73046,-9.40833 -1.39347,-2.25692 -2.49128,-3.19088 -5.63734,-4.79589 -3.53712,-1.80452 -4.38394,-1.99991 -8.94722,-2.06435 -2.77218,-0.0391 -5.26551,-0.10322 -5.54072,-0.14237 -0.27521,-0.0391 -0.83961,-0.89013 -1.2542,-1.89107 -0.41461,-1.00093 -1.5088,-2.67974 -2.43154,-3.73068 -3.14889,-3.58638 -3.69228,-3.69765 -20.87082,-4.27352 -20.1485,-0.67543 -97.28522,-0.11708 -100.78585,0.72953 -3.07629,0.74398 -5.92218,2.81008 -7.27284,5.28003 -1.3651,2.49637 -1.32266,12.91514 0.084,20.61407 2.31092,12.6483 8.77269,28.56898 16.25037,40.03806 1.90055,2.91501 3.45555,5.7681 3.45555,6.34019 0,1.27268 -1.47195,1.71047 -5.9795,1.77847 -4.56396,0.0688 -7.60511,1.06002 -9.00491,2.93491 -1.04568,1.40057 -1.08589,1.77232 -0.43108,3.98506 2.51535,8.49991 12.56034,18.58831 21.96446,22.05937 5.12614,1.89206 11.77741,2.20398 44.1344,2.06973 28.30719,-0.11745 29.45686,-0.16429 33.02961,-1.34579 z m -128.17581,-7.86507 c 2.77185,-2.33236 2.44586,-4.38986 -2.17832,-13.74838 -6.14237,-12.43107 -9.30828,-21.84979 -11.53655,-34.32172 -1.01537,-5.68319 -1.02005,-26.16743 -0.007,-31.89066 4.08154,-23.06515 13.6197,-41.89866 29.1417,-57.5416 16.27847,-16.40531 34.73287,-26.21516 56.9476,-30.27177 7.97966,-1.45716 28.09746,-1.7631 35.59226,-0.54126 13.80464,2.25049 22.09265,5.26216 39.14722,14.22519 7.55399,3.97001 10.4853,4.51598 12.07334,2.24874 3.14727,-4.49337 -1.92986,-9.77425 -15.72435,-16.35538 -17.52991,-8.363231 -33.44275,-11.991714 -52.59008,-11.991714 -18.88011,0 -35.42846,3.892955 -52.09748,12.255794 -30.99628,15.55082 -54.77206,46.13856 -62.08287,79.87013 -3.42743,15.81392 -2.23518,42.88855 2.5566,58.0572 3.40688,10.78468 10.47723,25.6008 13.96804,29.2704 2.51276,2.64146 4.2952,2.83441 6.79017,0.73503 z M 228.24601,169.0205 c 1.2956,-1.2956 0.80977,-4.82625 -0.94154,-6.84237 -3.88416,-4.47147 -3.85133,-6.0129 0.23424,-10.99723 4.26704,-5.20571 5.58386,-7.88528 5.60433,-11.40406 0.0319,-5.47575 -5.50372,-13.92263 -9.12405,-13.92263 -0.91844,0 -2.23945,0.39893 -2.93556,0.88651 -2.01396,1.41063 -1.62307,3.64147 1.29698,7.40192 3.65746,4.71008 3.57415,5.30525 -1.72413,12.31725 -6.34941,8.40313 -6.0917,14.89367 0.84004,21.15608 2.42722,2.19284 5.35264,2.80159 6.74969,1.40453 z m 50.60267,-0.6734 c 1.41203,-1.21457 1.50692,-1.51136 0.90536,-2.83162 -0.36959,-0.81117 -1.8339,-2.90137 -3.25401,-4.64489 -3.60383,-4.42453 -3.49018,-5.35509 1.33623,-10.94035 5.00683,-5.79406 5.19335,-6.17743 5.19335,-10.67419 0,-4.55644 -0.89028,-6.84494 -3.95721,-10.17217 -2.89786,-3.1438 -5.2118,-4.21528 -7.17323,-3.32159 -2.21874,1.01092 -1.90931,4.06417 0.84215,8.30962 3.66097,5.64885 3.63501,6.01101 -0.73039,10.18728 -4.46288,4.26952 -6.03572,7.36833 -6.05309,11.92583 -0.0162,4.25132 1.5382,7.55751 5.13493,10.92183 3.24151,3.03205 5.29168,3.35989 7.75591,1.24025 z m -26.12801,-1.80764 c 0.9361,-0.65567 1.26566,-1.45874 1.26566,-3.08409 0,-1.83704 -0.3825,-2.55583 -2.33144,-4.38115 -4.26908,-3.9983 -4.12166,-5.32853 1.53571,-13.85782 5.3574,-8.07705 6.01041,-12.78506 2.73393,-19.71096 -2.2209,-4.69459 -5.02792,-7.62389 -7.30564,-7.62389 -0.99993,0 -2.2912,0.34597 -2.86949,0.76882 -1.47424,1.07799 -0.87351,4.22535 1.51776,7.95182 1.59854,2.49111 1.87863,3.44414 1.87863,6.39233 0,3.23659 -0.20375,3.77509 -3.09399,8.17747 -5.36768,8.17597 -6.37669,13.34505 -3.66657,18.78356 1.5499,3.11024 6.2826,7.47042 8.10867,7.47042 0.52861,0 1.53066,-0.39893 2.22677,-0.88651 z"
       id="path839" />
    <path
       style="fill:#ffffff;fill-rule:evenodd;stroke-width:2.15235;stroke-linejoin:round;paint-order:stroke fill markers"
       d="m 223.98667,272.75701 c -8.77355,-0.72036 -13.85,-3.02347 -13.85,-6.28354 v -1.66709 l 14.66401,-0.0136 c 15.20751,-0.0141 18.68517,-0.37329 19.91642,-2.05712 1.0535,-1.44075 0.89224,-3.86316 -0.36025,-5.41177 -1.04088,-1.28693 -1.47682,-1.35655 -10.20073,-1.62912 l -9.11339,-0.28474 -4.81385,-5.75971 c -6.16816,-7.38012 -11.17791,-14.9604 -14.63519,-22.14462 -4.88082,-10.14231 -8.39999,-22.6211 -8.9534,-31.74829 l -0.33666,-5.55239 54.32541,0.009 c 29.87897,0.005 54.60519,0.197 54.94714,0.42711 0.82712,0.5566 0.0935,7.91096 -1.46199,14.65529 -3.95862,17.16429 -10.23073,29.74652 -21.91731,43.96749 -4.56251,5.55196 -6.00336,6.42091 -10.65848,6.42796 -2.28235,0.003 -3.69671,1.04927 -4.21572,3.1172 -0.62898,2.50604 -0.0342,3.96419 2.03951,5.00013 1.7004,0.84944 3.68702,0.99583 13.52505,0.99659 10.82902,5.6e-4 11.53189,0.0649 11.53189,1.05157 0,2.64815 -7.45241,6.1883 -14.61289,6.94161 -5.87696,0.61828 -48.16627,0.58671 -55.81957,-0.0417 z m 35.66721,-8.95304 c 0.7612,-0.61638 1.35921,-1.90673 1.55289,-3.35074 0.46667,-3.47924 -1.01514,-4.75847 -5.51201,-4.75847 -4.25737,0 -5.69476,1.14991 -5.69476,4.55581 0,3.30826 1.46418,4.55581 5.34694,4.55581 2.08117,0 3.46748,-0.32266 4.30694,-1.00241 z"
       id="path841" />
    <path
       style="fill:#ffffff;fill-rule:evenodd;stroke-width:2.15235;stroke-linejoin:round;paint-order:stroke fill markers"
       d="m 312.64237,220.39674 c 0,-1.7988 3.36206,-13.73186 4.58925,-16.28875 1.3727,-2.86007 3.27039,-3.93715 6.9368,-3.93715 2.26763,0 3.02207,0.26007 3.90012,1.34441 3.27776,4.04787 -0.96351,12.16789 -9.24362,17.69714 -3.84262,2.566 -6.18255,3.01425 -6.18255,1.18435 z"
       id="path843" />
  </g>
</svg>
