<svg xmlns="http://www.w3.org/2000/svg" viewBox="0 0 16 16"><path d="M7.777 1.637a.37.37 0 00-.127.02c-.174.055-.159.25.043.548.22.323.22.62-.004.918-.566.756-.574 1.264-.027 1.725.17.142.239.163.344.107.186-.1.165-.366-.04-.5-.333-.219-.299-.464.141-1.04.372-.488.373-.934.002-1.505-.12-.187-.215-.268-.332-.273zm1.68.527c-.252 0-.264.229-.03.553.268.37.262.49-.034.717-.59.449-.582 1.17.015 1.63.157.121.362.1.455-.048.057-.09.02-.171-.18-.393-.138-.153-.251-.329-.251-.39 0-.062.152-.275.34-.473.295-.313.341-.399.341-.643a1.17 1.17 0 00-.076-.43c-.136-.264-.423-.523-.58-.523zM6.059 2.2c-.277 0-.318.248-.082.5.288.308.287.44-.006.778-.504.582-.538 1.005-.117 1.45.161.172.278.239.388.223.232-.032.245-.321.024-.529-.2-.188-.228-.486-.059-.625.062-.051.2-.213.307-.36.265-.365.257-.679-.03-1.107-.182-.273-.257-.33-.425-.33zm1.873 3.578c-3.76 0-3.927.004-4.135.131-.3.183-.377.362-.37.856.018 1.137.519 2.577 1.28 3.67l.293.42-.492.019c-.812.034-.915.26-.442.965.346.514.879.912 1.413 1.053.485.128 4.267.15 4.873.029.532-.107 1.139-.524 1.474-1.012.339-.492.386-.695.201-.879-.118-.119-.226-.142-.652-.142h-.51l.34-.5c.32-.471.367-.513.813-.688.865-.34 1.57-.881 1.863-1.435.193-.366.2-1.004.014-1.315-.192-.319-.634-.518-1.063-.476-.332.032-.343.028-.436-.194a.925.925 0 00-.32-.365c-.128-.078-.489-.108-1.306-.123-.58-.01-1.258-.014-2.838-.014zm-3.746.746l3.763.02 2.121.01 1.645.008-.026.34c-.037.53-.327 1.584-.585 2.128-.266.56-.52.952-1.02 1.567-.324.399-.363.425-.633.425-.213.001-.305.035-.357.133-.096.18-.09.25.035.375.087.087.287.107 1.04.11l.933.004-.239.203c-.13.112-.391.25-.576.304-.264.079-.767.098-2.35.094-2.214-.005-2.445-.037-2.867-.398l-.238-.203 1.264-.004c1.325-.003 1.427-.025 1.427-.309 0-.254-.132-.307-.765-.307h-.602l-.097-.11-.122-.14c-.644-.733-1.114-1.504-1.38-2.267-.208-.595-.371-1.35-.371-1.713zm8.72.686c.229 0 .323.068.373.271.074.3-.217.743-.7 1.07-.467.317-.6.36-.524.173.026-.066.117-.395.203-.733.165-.65.273-.781.648-.781zm-4.693 3.814c-.222 0-.348.112-.348.307 0 .079.035.18.08.225.045.045.177.082.293.082.26 0 .375-.107.375-.348 0-.197-.103-.266-.4-.266z" fill="#4A4A4A"/></svg>