<svg id="Capa_1" enable-background="new 0 0 512 512" height="512" viewBox="0 0 512 512" width="512" xmlns="http://www.w3.org/2000/svg"><g><path d="m492.105 204.633c-10.283-7.522-23.356-12.165-37.412-13.406-14.183-15.291-32.083-29.547-52.253-41.657.636-4.66-1.597-9.119-5.735-11.396-3.164-1.742-6.41-3.448-9.647-5.071-3.705-1.857-8.21-.36-10.066 3.342-1.744 3.476-.68 8.056 3.619 10.206-42.244 10.412-85.819 32.228-122.954 55.569-13.798-.256-27.813 2.67-40.055 9.493-4.839 2.696-10.542 2.604-14.884-.243-4.294-2.815-9.035-5.162-14.08-7.014 41.214-31.428 87.708-58.924 129.501-76.419 3.922-1.641 8.405-1.891 12.626-.705 5.836 1.64 11.698 3.497 17.424 5.519 3.909 1.38 8.19-.67 9.569-4.575 1.379-3.906-.67-8.19-4.575-9.569-6.033-2.13-12.21-4.087-18.358-5.815-7.667-2.155-15.413-1.663-23.266 1.643-18.286-3.643-36.961-5.509-55.56-5.509-18.601 0-37.279 1.867-55.565 5.51-8.032-3.378-15.777-3.748-23.296-1.635-21.598 6.074-42.408 14.578-61.854 25.278-4.132 2.274-6.363 6.728-5.73 11.384-20.171 12.112-38.066 26.374-52.249 41.665-14.056 1.241-27.129 5.883-37.412 13.406-12.828 9.385-19.893 22.087-19.893 35.765s7.065 26.38 19.895 35.766c10.247 7.496 23.264 12.132 37.264 13.392l19.713 64.026c7.188 23.346 26.379 41.489 50.084 47.35 4.029.995 8.088-1.466 9.081-5.48.994-4.021-1.46-8.087-5.48-9.081-18.623-4.604-33.701-18.859-39.349-37.203l-18.357-59.621c9.311-.86 18.265-3.224 26.253-6.978 5.029-2.362 10.877-1.76 15.263 1.575 23.088 17.559 59.09 18.965 84.323 4.903 4.839-2.697 10.543-2.604 14.885.243 24.309 15.936 60.586 15.906 84.853-.001 4.341-2.847 10.044-2.939 14.883-.243 25.238 14.065 61.239 12.653 84.323-4.903 4.385-3.335 10.232-3.939 15.264-1.575 7.987 3.753 16.941 6.118 26.252 6.978l-18.356 59.621c-7.146 23.211-28.267 38.807-52.553 38.807h-203.605c-4.142 0-7.5 3.358-7.5 7.5s3.358 7.5 7.5 7.5h203.603c30.911 0 57.792-19.849 66.889-49.393l19.713-64.026c14-1.26 27.018-5.896 37.265-13.392 12.829-9.385 19.894-22.087 19.894-35.765s-7.065-26.38-19.895-35.766zm-101.833-44.825c16.406 9.416 31.294 20.312 43.85 32.042-12.438 1.891-23.851 6.503-32.986 13.449-4.385 3.335-10.233 3.938-15.264 1.575-12.743-5.989-28.159-8.552-43.715-6.806-6.709-5.32-13.682-10.619-20.846-15.843 21.671-10.221 45.296-19.229 68.961-24.417zm-84.193 31.946c5.884 4.185 11.662 8.426 17.277 12.703-5.043 1.852-9.782 4.198-14.074 7.012-4.344 2.846-10.047 2.939-14.885.243-4.317-2.406-8.95-4.368-13.812-5.876 7.93-4.66 16.479-9.425 25.494-14.082zm-19.259-65.943c-10.174 4.975-20.492 10.423-30.833 16.269-10.409-5.887-20.7-11.318-30.806-16.259 19.836-2.299 40.202-2.484 61.639-.01zm-105.62 1.529c4.243-1.192 8.737-.946 12.657.695 15.133 6.335 30.922 14.011 47.061 22.836-12.216 7.347-24.377 15.199-36.283 23.434-25.848-12.749-50.426-22.029-73.249-27.654 15.854-7.979 32.568-14.461 49.814-19.311zm-59.477 32.471c21.325 4.675 44.456 12.858 68.955 24.409-7.085 5.17-14.044 10.462-20.836 15.849-15.554-1.746-30.967.814-43.716 6.806-5.029 2.362-10.878 1.76-15.263-1.575-9.134-6.947-20.547-11.559-32.984-13.45 12.554-11.729 27.439-22.624 43.844-32.039zm297.552 109.184c-10.102-4.748-21.875-3.519-30.723 3.211-17.427 13.253-46.938 15.445-67.941 3.739-9.732-5.422-21.384-5.115-30.408.802-19.286 12.642-49.091 12.661-68.405 0-8.975-5.884-20.623-6.254-30.41-.801-21.002 11.704-50.513 9.515-67.941-3.74-8.847-6.728-20.619-7.958-30.723-3.211-33.29 15.645-77.724-1.336-77.724-28.596 0-19.034 22.402-34.52 49.938-34.52 13.923 0 27.352 4.141 36.845 11.36 8.849 6.729 20.62 7.958 30.723 3.211 19.097-8.975 44.761-7.73 61.989 3.564 9.026 5.916 20.679 6.224 30.41.801 18.197-10.141 43.879-10.205 62.191.001 9.731 5.422 21.383 5.115 30.41-.802 17.23-11.296 42.897-12.536 61.988-3.564 10.103 4.747 21.874 3.517 30.723-3.211 9.493-7.219 22.923-11.359 36.846-11.359 27.536 0 49.938 15.485 49.938 34.52-.001 27.654-44.927 44.008-77.726 28.595zm-93.327 73.983v-12c0-4.142-3.357-7.5-7.5-7.5s-7.5 3.358-7.5 7.5v12c0 4.142 3.357 7.5 7.5 7.5s7.5-3.358 7.5-7.5zm-124.897 0v-12c0-4.142-3.358-7.5-7.5-7.5s-7.5 3.358-7.5 7.5v12c0 4.142 3.358 7.5 7.5 7.5s7.5-3.358 7.5-7.5zm54.949 14.643c8.477 0 16.539-3.671 22.118-10.073 2.722-3.123 2.396-7.86-.727-10.582-3.125-2.721-7.862-2.397-10.582.727-2.729 3.131-6.669 4.928-10.81 4.928s-8.081-1.796-10.811-4.928c-2.721-3.123-7.459-3.448-10.582-.726-3.122 2.722-3.448 7.459-.726 10.582 5.581 6.401 13.643 10.072 22.12 10.072z"/></g></svg>