<svg width="48" height="48" xmlns="http://www.w3.org/2000/svg">

 <g>
  <title>background</title>
  <rect fill="none" id="canvas_background" height="402" width="582" y="-1" x="-1"/>
 </g>
 <g>
  <title>Layer 1</title>
  <path id="svg_2" fill="#303030" d="m32.57532,22.41571c-0.31586,0.87201 -0.63159,1.74371 -0.953,2.63037c0.51813,0 1.00891,0 1.52899,0c-0.18518,-0.88745 -0.36639,-1.7572 -0.54779,-2.62659c-0.00946,-0.00128 -0.0188,-0.0025 -0.0282,-0.00378z"/>
  <path id="svg_3" fill="#303030" d="m36.73413,14.05713l-25.46875,0c-1.32666,0 -2.40625,1.07959 -2.40625,2.40674l0,15.07227c0,1.32715 1.07959,2.40674 2.40625,2.40674l25.46875,0c1.32715,0 2.40674,-1.07959 2.40674,-2.40674l0,-15.07227c0,-1.32715 -1.07959,-2.40674 -2.40674,-2.40674zm-10.03162,10.97497c-0.18939,-0.15021 -0.4071,-0.26819 -0.6228,-0.38043c-0.35907,-0.18689 -0.71417,-0.37628 -1.02637,-0.63879c-0.89069,-0.74817 -0.77692,-1.79407 -0.29492,-2.4978c0.39661,-0.57855 0.97974,-0.8847 1.64252,-1.05219c0.21112,-0.05347 0.4306,-0.07318 0.64569,-0.1095c0.03198,-0.00537 0.06299,-0.01642 0.09454,-0.0249c0.23584,0 0.47186,0 0.70776,0c0.20624,0.03394 0.41382,0.06042 0.6178,0.10443c0.20087,0.04327 0.39862,0.10315 0.59698,0.1582c0.04803,0.01324 0.09351,0.03497 0.14972,0.0567c-0.10651,0.4964 -0.21161,0.98816 -0.31689,1.47998c-0.2417,-0.07623 -0.47284,-0.1629 -0.71124,-0.22089c-0.42889,-0.10425 -0.8667,-0.14893 -1.29877,-0.03271c-0.15619,0.04218 -0.31342,0.13019 -0.43561,0.23688c-0.20721,0.18073 -0.20752,0.44482 -0.00751,0.63354c0.13623,0.12848 0.29608,0.2359 0.45782,0.33167c0.32208,0.19043 0.66046,0.35382 0.97821,0.55103c0.42725,0.2652 0.7829,0.60358 0.92535,1.10809c0.20703,0.73279 -0.01917,1.70972 -0.83521,2.29877c-0.46954,0.33881 -1.00085,0.5163 -1.56647,0.58881c-0.88971,0.1142 -1.76288,0.02692 -2.61328,-0.26501c-0.0473,-0.01617 -0.09283,-0.03735 -0.15302,-0.06189c0.10999,-0.51538 0.21887,-1.02686 0.33069,-1.54999c0.0719,0.03119 0.13373,0.05603 0.1936,0.08453c0.52612,0.24957 1.08087,0.36908 1.66217,0.36224c0.26672,-0.00299 0.52814,-0.04419 0.76886,-0.17139c0.43961,-0.23217 0.49777,-0.6828 0.11038,-0.98938zm-2.95886,-3.88189c-0.4447,2.08032 -0.89099,4.16028 -1.33112,6.24182c-0.0282,0.13318 -0.07568,0.17218 -0.21173,0.16968c-0.5011,-0.00922 -1.00238,-0.00348 -1.50366,-0.00348c-0.04602,0 -0.09174,0 -0.16101,0c0.50909,-2.37775 1.01392,-4.73633 1.5188,-7.09332c0.61401,0 1.21527,0 1.83179,0c-0.04889,0.23437 -0.09522,0.46008 -0.14307,0.6853zm-2.58142,-0.44342c-0.94067,2.2453 -1.88239,4.49054 -2.82111,6.73669c-0.03589,0.08569 -0.07867,0.11823 -0.17468,0.11749c-0.56848,-0.00494 -1.13727,-0.00397 -1.70593,-0.00049c-0.08569,0.00073 -0.12189,-0.02051 -0.1449,-0.10968c-0.47485,-1.84888 -0.95789,-3.6958 -1.42847,-5.54559c-0.08453,-0.33191 -0.25122,-0.56134 -0.56781,-0.70233c-0.52161,-0.23187 -1.06372,-0.39355 -1.61749,-0.52277c-0.02423,-0.0058 -0.04767,-0.01532 -0.07141,-0.02301c0,-0.01703 0,-0.03369 0,-0.05072c0.01703,-0.13947 0.10492,-0.15216 0.22742,-0.15167c0.9646,0.00519 1.92932,0.00299 2.89398,0.00317c0.47913,0 0.80768,0.26691 0.89691,0.73779c0.24689,1.30151 0.49091,2.60364 0.73596,3.90564c0.00854,0.04529 0.01984,0.08997 0.05621,0.14417c0.63129,-1.59436 1.26239,-3.1886 1.89264,-4.78058c0.64075,0 1.2749,0 1.92438,0c-0.03479,0.08802 -0.06372,0.16547 -0.0957,0.24189zm12.5152,6.84521c-0.05347,-0.25269 -0.10901,-0.50562 -0.16052,-0.75928c-0.06018,-0.29791 -0.05865,-0.2981 -0.36725,-0.2981c-0.64435,0 -1.28864,0.00165 -1.93311,-0.00183c-0.08984,-0.00049 -0.13354,0.02533 -0.1629,0.11279c-0.09705,0.28662 -0.20081,0.57098 -0.30872,0.8537c-0.01532,0.03992 -0.06903,0.09271 -0.10553,0.0932c-0.61023,0.00574 -1.22058,0.00403 -1.84436,0.00403c0.01581,-0.04449 0.02582,-0.07971 0.03998,-0.11322c0.89752,-2.14398 1.79541,-4.28809 2.69391,-6.43207c0.15222,-0.3634 0.43378,-0.55084 0.82489,-0.55133c0.50513,-0.00049 1.01019,-0.00018 1.53381,-0.00018c0.49329,2.36121 0.98608,4.7196 1.48169,7.09229c-0.57507,0 -1.12609,0 -1.69189,0z"/>
 </g>
</svg>