<?xml version="1.0" encoding="UTF-8" standalone="no"?>
<!-- Created with Inkscape (http://www.inkscape.org/) -->

<svg
   xmlns:dc="http://purl.org/dc/elements/1.1/"
   xmlns:cc="http://creativecommons.org/ns#"
   xmlns:rdf="http://www.w3.org/1999/02/22-rdf-syntax-ns#"
   xmlns:svg="http://www.w3.org/2000/svg"
   xmlns="http://www.w3.org/2000/svg"
   xmlns:sodipodi="http://sodipodi.sourceforge.net/DTD/sodipodi-0.dtd"
   xmlns:inkscape="http://www.inkscape.org/namespaces/inkscape"
   width="323.50201mm"
   height="77.774002mm"
   viewBox="0 0 323.50201 77.774002"
   version="1.1"
   id="svg8"
   inkscape:version="0.92.5 (2060ec1f9f, 2020-04-08)"
   sodipodi:docname="bakey-logo.svg">
  <defs
     id="defs2" />
  <sodipodi:namedview
     id="base"
     pagecolor="#ffffff"
     bordercolor="#666666"
     borderopacity="1.0"
     inkscape:pageopacity="0.0"
     inkscape:pageshadow="2"
     inkscape:zoom="0.35"
     inkscape:cx="-158.28572"
     inkscape:cy="269.83164"
     inkscape:document-units="mm"
     inkscape:current-layer="layer1"
     showgrid="false"
     fit-margin-top="0"
     fit-margin-left="0"
     fit-margin-right="0"
     fit-margin-bottom="0"
     inkscape:window-width="1848"
     inkscape:window-height="1136"
     inkscape:window-x="72"
     inkscape:window-y="27"
     inkscape:window-maximized="1" />
  <metadata
     id="metadata5">
    <rdf:RDF>
      <cc:Work
         rdf:about="">
        <dc:format>image/svg+xml</dc:format>
        <dc:type
           rdf:resource="http://purl.org/dc/dcmitype/StillImage" />
        <dc:title></dc:title>
      </cc:Work>
    </rdf:RDF>
  </metadata>
  <g
     inkscape:label="Layer 1"
     inkscape:groupmode="layer"
     id="layer1"
     transform="translate(-10.129763,-145.47609)">
    <g
       transform="matrix(0.26458333,0,0,0.26458333,10.129763,116.62963)"
       id="g917">
      <g
         id="g915">
        <path
           inkscape:connector-curvature="0"
           d="M 492.105,204.633 C 481.822,197.111 468.749,192.468 454.693,191.227 440.51,175.936 422.61,161.68 402.44,149.57 c 0.636,-4.66 -1.597,-9.119 -5.735,-11.396 -3.164,-1.742 -6.41,-3.448 -9.647,-5.071 -3.705,-1.857 -8.21,-0.36 -10.066,3.342 -1.744,3.476 -0.68,8.056 3.619,10.206 -42.244,10.412 -85.819,32.228 -122.954,55.569 -13.798,-0.256 -27.813,2.67 -40.055,9.493 -4.839,2.696 -10.542,2.604 -14.884,-0.243 -4.294,-2.815 -9.035,-5.162 -14.08,-7.014 41.214,-31.428 87.708,-58.924 129.501,-76.419 3.922,-1.641 8.405,-1.891 12.626,-0.705 5.836,1.64 11.698,3.497 17.424,5.519 3.909,1.38 8.19,-0.67 9.569,-4.575 1.379,-3.906 -0.67,-8.19 -4.575,-9.569 -6.033,-2.13 -12.21,-4.087 -18.358,-5.815 -7.667,-2.155 -15.413,-1.663 -23.266,1.643 -18.286,-3.643 -36.961,-5.509 -55.56,-5.509 -18.601,0 -37.279,1.867 -55.565,5.51 -8.032,-3.378 -15.777,-3.748 -23.296,-1.635 -21.598,6.074 -42.408,14.578 -61.854,25.278 -4.132,2.274 -6.363,6.728 -5.73,11.384 -20.171,12.112 -38.066,26.374 -52.249,41.665 -14.056,1.241 -27.129,5.883 -37.412,13.406 C 7.065,214.019 0,226.721 0,240.399 c 0,13.678 7.065,26.38 19.895,35.766 10.247,7.496 23.264,12.132 37.264,13.392 l 19.713,64.026 c 7.188,23.346 26.379,41.489 50.084,47.35 4.029,0.995 8.088,-1.466 9.081,-5.48 0.994,-4.021 -1.46,-8.087 -5.48,-9.081 -18.623,-4.604 -33.701,-18.859 -39.349,-37.203 L 72.851,289.548 c 9.311,-0.86 18.265,-3.224 26.253,-6.978 5.029,-2.362 10.877,-1.76 15.263,1.575 23.088,17.559 59.09,18.965 84.323,4.903 4.839,-2.697 10.543,-2.604 14.885,0.243 24.309,15.936 60.586,15.906 84.853,-10e-4 4.341,-2.847 10.044,-2.939 14.883,-0.243 25.238,14.065 61.239,12.653 84.323,-4.903 4.385,-3.335 10.232,-3.939 15.264,-1.575 7.987,3.753 16.941,6.118 26.252,6.978 l -18.356,59.621 c -7.146,23.211 -28.267,38.807 -52.553,38.807 H 164.636 c -4.142,0 -7.5,3.358 -7.5,7.5 0,4.142 3.358,7.5 7.5,7.5 h 203.603 c 30.911,0 57.792,-19.849 66.889,-49.393 l 19.713,-64.026 c 14,-1.26 27.018,-5.896 37.265,-13.392 12.829,-9.385 19.894,-22.087 19.894,-35.765 0,-13.678 -7.065,-26.38 -19.895,-35.766 z M 390.272,159.808 c 16.406,9.416 31.294,20.312 43.85,32.042 -12.438,1.891 -23.851,6.503 -32.986,13.449 -4.385,3.335 -10.233,3.938 -15.264,1.575 -12.743,-5.989 -28.159,-8.552 -43.715,-6.806 -6.709,-5.32 -13.682,-10.619 -20.846,-15.843 21.671,-10.221 45.296,-19.229 68.961,-24.417 z m -84.193,31.946 c 5.884,4.185 11.662,8.426 17.277,12.703 -5.043,1.852 -9.782,4.198 -14.074,7.012 -4.344,2.846 -10.047,2.939 -14.885,0.243 -4.317,-2.406 -8.95,-4.368 -13.812,-5.876 7.93,-4.66 16.479,-9.425 25.494,-14.082 z M 286.82,125.811 c -10.174,4.975 -20.492,10.423 -30.833,16.269 -10.409,-5.887 -20.7,-11.318 -30.806,-16.259 19.836,-2.299 40.202,-2.484 61.639,-0.01 z M 181.2,127.34 c 4.243,-1.192 8.737,-0.946 12.657,0.695 15.133,6.335 30.922,14.011 47.061,22.836 -12.216,7.347 -24.377,15.199 -36.283,23.434 -25.848,-12.749 -50.426,-22.029 -73.249,-27.654 15.854,-7.979 32.568,-14.461 49.814,-19.311 z m -59.477,32.471 c 21.325,4.675 44.456,12.858 68.955,24.409 -7.085,5.17 -14.044,10.462 -20.836,15.849 -15.554,-1.746 -30.967,0.814 -43.716,6.806 -5.029,2.362 -10.878,1.76 -15.263,-1.575 -9.134,-6.947 -20.547,-11.559 -32.984,-13.45 12.554,-11.729 27.439,-22.624 43.844,-32.039 z m 297.552,109.184 c -10.102,-4.748 -21.875,-3.519 -30.723,3.211 -17.427,13.253 -46.938,15.445 -67.941,3.739 -9.732,-5.422 -21.384,-5.115 -30.408,0.802 -19.286,12.642 -49.091,12.661 -68.405,0 -8.975,-5.884 -20.623,-6.254 -30.41,-0.801 -21.002,11.704 -50.513,9.515 -67.941,-3.74 -8.847,-6.728 -20.619,-7.958 -30.723,-3.211 C 59.434,284.64 15,267.659 15,240.399 c 0,-19.034 22.402,-34.52 49.938,-34.52 13.923,0 27.352,4.141 36.845,11.36 8.849,6.729 20.62,7.958 30.723,3.211 19.097,-8.975 44.761,-7.73 61.989,3.564 9.026,5.916 20.679,6.224 30.41,0.801 18.197,-10.141 43.879,-10.205 62.191,0.001 9.731,5.422 21.383,5.115 30.41,-0.802 17.23,-11.296 42.897,-12.536 61.988,-3.564 10.103,4.747 21.874,3.517 30.723,-3.211 9.493,-7.219 22.923,-11.359 36.846,-11.359 27.536,0 49.938,15.485 49.938,34.52 -10e-4,27.654 -44.927,44.008 -77.726,28.595 z m -93.327,73.983 v -12 c 0,-4.142 -3.357,-7.5 -7.5,-7.5 -4.143,0 -7.5,3.358 -7.5,7.5 v 12 c 0,4.142 3.357,7.5 7.5,7.5 4.143,0 7.5,-3.358 7.5,-7.5 z m -124.897,0 v -12 c 0,-4.142 -3.358,-7.5 -7.5,-7.5 -4.142,0 -7.5,3.358 -7.5,7.5 v 12 c 0,4.142 3.358,7.5 7.5,7.5 4.142,0 7.5,-3.358 7.5,-7.5 z M 256,357.621 c 8.477,0 16.539,-3.671 22.118,-10.073 2.722,-3.123 2.396,-7.86 -0.727,-10.582 -3.125,-2.721 -7.862,-2.397 -10.582,0.727 -2.729,3.131 -6.669,4.928 -10.81,4.928 -4.141,0 -8.081,-1.796 -10.811,-4.928 -2.721,-3.123 -7.459,-3.448 -10.582,-0.726 -3.122,2.722 -3.448,7.459 -0.726,10.582 5.581,6.401 13.643,10.072 22.12,10.072 z"
           data-original="#000000"
           style="fill:#ed8db2"
           class=""
           id="path913" />
      </g>
    </g>
    <text
       xml:space="preserve"
       style="font-style:normal;font-variant:normal;font-weight:bold;font-stretch:normal;font-size:52.91666794px;line-height:1.25;font-family:'Montserrat Alternates';-inkscape-font-specification:'Montserrat Alternates Bold';letter-spacing:0px;word-spacing:0px;fill:#ed8db2;fill-opacity:1;stroke:none;stroke-width:0.26458332"
       x="161.01785"
       y="201.75"
       id="text1493"><tspan
         sodipodi:role="line"
         id="tspan1491"
         x="161.01785"
         y="201.75"
         style="font-style:normal;font-variant:normal;font-weight:bold;font-stretch:normal;font-size:52.91666794px;font-family:'Montserrat Alternates';-inkscape-font-specification:'Montserrat Alternates Bold';fill:#ed8db2;fill-opacity:1;stroke-width:0.26458332">bakey</tspan></text>
  </g>
</svg>
