<?xml version="1.0" encoding="UTF-8" standalone="no"?>
<!-- Created with Inkscape (http://www.inkscape.org/) -->

<svg
   xmlns:dc="http://purl.org/dc/elements/1.1/"
   xmlns:cc="http://creativecommons.org/ns#"
   xmlns:rdf="http://www.w3.org/1999/02/22-rdf-syntax-ns#"
   xmlns:svg="http://www.w3.org/2000/svg"
   xmlns="http://www.w3.org/2000/svg"
   xmlns:sodipodi="http://sodipodi.sourceforge.net/DTD/sodipodi-0.dtd"
   xmlns:inkscape="http://www.inkscape.org/namespaces/inkscape"
   width="16px"
   height="16px"
   viewBox="0 0 16 16"
   version="1.1"
   id="SVGRoot"
   inkscape:version="0.92.5 (2060ec1f9f, 2020-04-08)"
   sodipodi:docname="Bcrypt.svg">
  <defs
     id="defs815" />
  <sodipodi:namedview
     id="base"
     pagecolor="#ffffff"
     bordercolor="#666666"
     borderopacity="1.0"
     inkscape:pageopacity="0.0"
     inkscape:pageshadow="2"
     inkscape:zoom="16"
     inkscape:cx="-5.21875"
     inkscape:cy="8"
     inkscape:document-units="px"
     inkscape:current-layer="layer1"
     showgrid="false"
     inkscape:window-width="1848"
     inkscape:window-height="1136"
     inkscape:window-x="72"
     inkscape:window-y="27"
     inkscape:window-maximized="1"
     inkscape:grid-bbox="true" />
  <metadata
     id="metadata818">
    <rdf:RDF>
      <cc:Work
         rdf:about="">
        <dc:format>image/svg+xml</dc:format>
        <dc:type
           rdf:resource="http://purl.org/dc/dcmitype/StillImage" />
        <dc:title></dc:title>
      </cc:Work>
    </rdf:RDF>
  </metadata>
  <g
     inkscape:label="Layer 1"
     inkscape:groupmode="layer"
     id="layer1">
    <path
       style="fill:#434343;fill-opacity:1;stroke-width:0.03281872"
       d="m 8.517104,9.87827 c -0.012,-0.012 -0.0219,-0.10487 -0.0219,-0.20629 V 9.48757 h 0.17553 c 0.22769,0 0.3342,-0.071 0.43425,-0.28958 L 9.183484,9.0265 8.757294,7.96272 c -0.23441,-0.58507 -0.4262,-1.07523 -0.4262,-1.08924 0,-0.014 0.13083,-0.0255 0.29073,-0.0255 h 0.29073 l 0.23242,0.6974 c 0.12782,0.38357 0.24903,0.76166 0.26934,0.84019 0.0203,0.0785 0.0434,0.13634 0.0513,0.12846 0.008,-0.008 0.0594,-0.17553 0.11453,-0.37253 0.0551,-0.197 0.1666,-0.56863 0.24778,-0.82585 l 0.1476,-0.46767 h 0.29715 c 0.26961,0 0.29508,0.005 0.27484,0.0574 -0.0123,0.0316 -0.21306,0.56344 -0.44622,1.18188 -0.45983,1.21973 -0.53391,1.38714 -0.69501,1.57062 -0.15402,0.17542 -0.32101,0.24062 -0.61843,0.24148 -0.13688,3.5e-4 -0.25872,-0.009 -0.27076,-0.0211 z m 2.37389,-1.30247 c 0,-0.72839 -0.009,-1.41512 -0.0211,-1.52607 L 10.848794,6.848 h 0.28364 0.28363 v 0.11218 c 0,0.20609 0.0247,0.21553 0.17375,0.0665 0.28742,-0.28743 0.80745,-0.28457 1.07981,0.006 0.29817,0.31804 0.3688,1.13914 0.13863,1.61158 -0.14473,0.29709 -0.37312,0.43496 -0.72117,0.43534 -0.21022,2.8e-4 -0.47701,-0.12732 -0.57002,-0.27251 l -0.0671,-0.10472 -4.9e-4,0.59894 -4.9e-4,0.59894 h -0.27896 -0.27896 z m 1.25652,0.0441 c 0.13784,-0.10842 0.20343,-0.33313 0.20108,-0.68884 -0.003,-0.49491 -0.14397,-0.72223 -0.44679,-0.72189 -0.28156,3.7e-4 -0.42896,0.2228 -0.44696,0.6746 -0.0146,0.36655 0.0317,0.55099 0.17423,0.69348 0.0938,0.0938 0.1309,0.10864 0.27159,0.10864 0.11355,0 0.18839,-0.02 0.24685,-0.066 z m -6.9796,0.4079 c -0.21942,-0.07 -0.47384,-0.32925 -0.56089,-0.57164 -0.0931,-0.25928 -0.087,-0.76556 0.0123,-1.0231 0.0863,-0.22376 0.28116,-0.43433 0.49047,-0.52999 0.12205,-0.0558 0.21559,-0.0697 0.46459,-0.0693 0.37471,6.2e-4 0.55269,0.0714 0.75387,0.29997 0.12513,0.14215 0.22469,0.35484 0.18478,0.39475 -0.0108,0.0108 -0.13421,0.0263 -0.27425,0.0344 l -0.25462,0.0147 -0.0598,-0.13553 c -0.0958,-0.21714 -0.33204,-0.29487 -0.55139,-0.18143 -0.1601,0.0828 -0.23633,0.29682 -0.2388,0.67045 -0.003,0.52864 0.1305,0.75483 0.44716,0.75483 0.13566,0 0.17796,-0.0158 0.25852,-0.0963 0.053,-0.053 0.10538,-0.14159 0.11645,-0.19692 0.0187,-0.0934 0.0298,-0.10038 0.15549,-0.0977 0.0745,0.002 0.20289,0.0127 0.2854,0.0246 0.14928,0.0216 0.14989,0.0222 0.12311,0.12463 -0.0535,0.20435 -0.22868,0.4148 -0.43141,0.51814 -0.16072,0.0819 -0.23635,0.0989 -0.47587,0.10699 -0.19128,0.006 -0.33741,-0.007 -0.44509,-0.0415 z m 8.54783,-0.003 c -0.0619,-0.0328 -0.14312,-0.10131 -0.18051,-0.15223 -0.0634,-0.0863 -0.0687,-0.14446 -0.0784,-0.86149 l -0.0104,-0.76892 h -0.12909 -0.12909 V 7.04705 6.85193 l 0.15332,-0.01 0.15333,-0.01 0.0791,-0.23794 0.0791,-0.23793 h 0.17777 0.17777 V 6.6022 6.84834 h 0.21332 0.21332 v 0.19691 0.19691 h -0.21332 -0.21332 V 7.8777 c 0,0.59327 0.005,0.64129 0.068,0.72201 0.0552,0.0702 0.0954,0.0865 0.21332,0.0865 h 0.1453 v 0.16215 c 0,0.0892 -0.0161,0.17214 -0.0359,0.18433 -0.0197,0.0122 -0.15634,0.0288 -0.30357,0.037 -0.21578,0.0119 -0.28954,0.003 -0.38024,-0.0448 z m -12.07177,-1.39702 0.009,-1.41941 0.7056,-0.009 c 0.38821,-0.005 0.80796,0.007 0.93316,0.0258 0.46542,0.0716 0.70777,0.30044 0.70777,0.66825 0,0.30608 -0.0962,0.46055 -0.37741,0.60618 -0.11654,0.0603 -0.12207,0.0682 -0.0492,0.0701 0.20164,0.005 0.48205,0.2096 0.55583,0.4049 0.0509,0.13478 0.0427,0.43266 -0.0159,0.57279 -0.0676,0.16179 -0.1645,0.26104 -0.34304,0.35137 -0.24853,0.12573 -0.45018,0.14851 -1.31471,0.14851 h -0.8192 z m 1.73547,0.90619 c 0.0609,-0.0356 0.12906,-0.10081 0.1514,-0.14495 0.0574,-0.11341 0.0512,-0.33083 -0.0119,-0.42101 -0.0966,-0.13797 -0.23326,-0.16793 -0.76589,-0.16793 h -0.49334 v 0.41463 0.41463 l 0.5045,-0.0153 c 0.42462,-0.0129 0.52204,-0.0256 0.61528,-0.08 z m -0.15321,-1.2398 c 0.13233,-0.0553 0.18209,-0.13677 0.18209,-0.29815 0,-0.28719 -0.11726,-0.34459 -0.70397,-0.34459 h -0.44468 v 0.34459 0.3446 h 0.4277 c 0.29456,0 0.4623,-0.0145 0.53886,-0.0465 z m 3.72651,0.6536 V 6.84834 h 0.25904 c 0.29716,0 0.29784,6.2e-4 0.30077,0.28985 l 0.002,0.18602 0.0757,-0.16409 c 0.0416,-0.0903 0.11251,-0.19791 0.1575,-0.23924 0.0904,-0.083 0.27186,-0.1248 0.40121,-0.0923 0.0799,0.02 0.0838,0.0319 0.0838,0.2497 v 0.22866 l -0.19384,-0.005 c -0.23761,-0.007 -0.34448,0.0545 -0.43175,0.24673 -0.0545,0.12009 -0.0623,0.22064 -0.0629,0.81791 l -7.4e-4,0.68099 h -0.29537 -0.29537 z"
       id="path9294"
       inkscape:connector-curvature="0" />
  </g>
</svg>
