<?xml version="1.0" encoding="UTF-8" standalone="no"?>
<!-- Created with Inkscape (http://www.inkscape.org/) -->

<svg
   xmlns:dc="http://purl.org/dc/elements/1.1/"
   xmlns:cc="http://creativecommons.org/ns#"
   xmlns:rdf="http://www.w3.org/1999/02/22-rdf-syntax-ns#"
   xmlns:svg="http://www.w3.org/2000/svg"
   xmlns="http://www.w3.org/2000/svg"
   xmlns:sodipodi="http://sodipodi.sourceforge.net/DTD/sodipodi-0.dtd"
   xmlns:inkscape="http://www.inkscape.org/namespaces/inkscape"
   width="16px"
   height="16px"
   viewBox="0 0 16 16"
   version="1.1"
   id="SVGRoot"
   inkscape:version="0.92.5 (2060ec1f9f, 2020-04-08)"
   sodipodi:docname="express-new.svg">
  <defs
     id="defs815" />
  <sodipodi:namedview
     id="base"
     pagecolor="#ffffff"
     bordercolor="#666666"
     borderopacity="1.0"
     inkscape:pageopacity="0.0"
     inkscape:pageshadow="2"
     inkscape:zoom="16"
     inkscape:cx="-14.75"
     inkscape:cy="8"
     inkscape:document-units="px"
     inkscape:current-layer="layer1"
     showgrid="false"
     inkscape:window-width="1848"
     inkscape:window-height="1136"
     inkscape:window-x="72"
     inkscape:window-y="27"
     inkscape:window-maximized="1"
     inkscape:grid-bbox="true" />
  <metadata
     id="metadata818">
    <rdf:RDF>
      <cc:Work
         rdf:about="">
        <dc:format>image/svg+xml</dc:format>
        <dc:type
           rdf:resource="http://purl.org/dc/dcmitype/StillImage" />
        <dc:title />
      </cc:Work>
    </rdf:RDF>
  </metadata>
  <g
     inkscape:label="Layer 1"
     inkscape:groupmode="layer"
     id="layer1">
    <path
       style="fill:#434343;stroke-width:0.032;fill-opacity:1"
       d="M 4.530712,11.518716 C 3.7408192,11.394629 3.0171256,10.99022 2.604963,10.442585 2.2602962,9.9846301 2.0227031,9.3900266 1.9514801,8.8071699 1.9327177,8.6536266 1.9036394,8.4776 1.8868617,8.416 1.8246248,8.1874941 1.8523236,7.7730829 1.9683104,7.1974179 2.1006252,6.5407142 2.1417556,6.4047779 2.3112506,6.064 2.4858815,5.7128963 2.6690157,5.4645664 2.9504875,5.1971958 3.2302067,4.9314899 3.390119,4.8172733 3.696,4.6647162 4.1899139,4.4183786 4.5800422,4.336672 5.1443603,4.3613782 5.6320902,4.3827318 5.8326598,4.4330589 6.256,4.640312 6.8496883,4.9309619 7.2761805,5.3378662 7.5617978,5.8861379 7.8288125,6.3986995 7.9258646,6.8097862 7.9569754,7.56 l 0.0209,0.504 H 5.2049379 2.432 v 0.2056845 c 0,0.8358483 0.3021054,1.6328259 0.8041987,2.1215385 0.4707146,0.45817 0.9146135,0.644954 1.5958013,0.671482 0.5339053,0.02079 0.91556,-0.05485 1.344,-0.266385 C 6.6848944,10.545064 7.1048598,10.060499 7.2619734,9.5433005 7.3813056,9.1504736 7.5166358,9.0281808 7.7823344,9.0730701 l 0.1262109,0.021323 -0.022121,0.1328035 C 7.849297,9.4500896 7.74328,9.7643347 7.6257037,10 7.2524179,10.748198 6.6518531,11.229316 5.808,11.456177 5.5149168,11.53497 4.8434538,11.567846 4.530712,11.518716 Z M 7.4415805,7.464 C 7.4332336,7.398 7.4180349,7.2648 7.4078058,7.168 7.3785018,6.8906954 7.2660304,6.5028765 7.1332733,6.2213686 6.6771805,5.2542368 5.7860358,4.7464694 4.744231,4.8601107 3.4600288,5.000193 2.5992487,5.946992 2.4496437,7.384 l -0.020822,0.2 h 2.5139671 2.5139674 z m 6.4020515,3.925068 C 13.553073,11.319253 13.515739,11.278299 12.667637,10.099035 11.623013,8.6465094 11.288159,8.192 11.262655,8.192 c -0.01139,0 -0.522141,0.6839062 -1.135006,1.5197917 C 9.0821853,11.137696 9.0034048,11.236538 8.852391,11.311792 8.6921514,11.391643 8.3826186,11.42296 8.3016854,11.36751 8.2804922,11.35299 8.7729987,10.664938 9.5896854,9.56812 10.316958,8.5913859 10.912,7.7818947 10.912,7.7692502 c 0,-0.012644 -0.555491,-0.7470982 -1.2344234,-1.63212 L 8.4431533,4.528 8.5710464,4.4999872 c 0.1788141,-0.039166 0.3777747,-0.00215 0.5651021,0.1051216 0.1417405,0.081171 0.2701737,0.2407942 1.1335765,1.4088662 0.535549,0.7245284 0.984102,1.3237373 0.996784,1.3315757 0.01268,0.00784 0.472849,-0.586904 1.022591,-1.3216496 0.549743,-0.7347456 1.04439,-1.3680109 1.099216,-1.407256 0.05483,-0.039245 0.171684,-0.084976 0.259684,-0.1016246 0.163669,-0.030964 0.368873,-0.00878 0.374289,0.040469 0.0037,0.033322 -0.537815,0.7607753 -1.53382,2.0606169 -0.408942,0.5336919 -0.759526,1.0002359 -0.779076,1.0367645 -0.08329,0.1556381 -0.03308,0.2333994 1.277099,1.9778579 0.706668,0.9409002 1.274199,1.7206182 1.261179,1.7327062 -0.04396,0.04082 -0.278834,0.05572 -0.404039,0.02563 z"
       id="path2259"
       inkscape:connector-curvature="0" />
  </g>
</svg>
