<?xml version="1.0" encoding="UTF-8" standalone="no"?>
<!-- Created with Inkscape (http://www.inkscape.org/) -->

<svg
   xmlns:dc="http://purl.org/dc/elements/1.1/"
   xmlns:cc="http://creativecommons.org/ns#"
   xmlns:rdf="http://www.w3.org/1999/02/22-rdf-syntax-ns#"
   xmlns:svg="http://www.w3.org/2000/svg"
   xmlns="http://www.w3.org/2000/svg"
   xmlns:sodipodi="http://sodipodi.sourceforge.net/DTD/sodipodi-0.dtd"
   xmlns:inkscape="http://www.inkscape.org/namespaces/inkscape"
   width="16px"
   height="16px"
   viewBox="0 0 16 16"
   version="1.1"
   id="SVGRoot"
   inkscape:version="0.92.5 (2060ec1f9f, 2020-04-08)"
   sodipodi:docname="Google-maps.svg">
  <defs
     id="defs10" />
  <sodipodi:namedview
     id="base"
     pagecolor="#ffffff"
     bordercolor="#666666"
     borderopacity="1.0"
     inkscape:pageopacity="0.0"
     inkscape:pageshadow="2"
     inkscape:zoom="16"
     inkscape:cx="-14.6875"
     inkscape:cy="8"
     inkscape:document-units="px"
     inkscape:current-layer="layer1"
     showgrid="false"
     inkscape:window-width="1848"
     inkscape:window-height="1136"
     inkscape:window-x="72"
     inkscape:window-y="27"
     inkscape:window-maximized="1"
     inkscape:grid-bbox="true" />
  <metadata
     id="metadata13">
    <rdf:RDF>
      <cc:Work
         rdf:about="">
        <dc:format>image/svg+xml</dc:format>
        <dc:type
           rdf:resource="http://purl.org/dc/dcmitype/StillImage" />
        <dc:title></dc:title>
      </cc:Work>
    </rdf:RDF>
  </metadata>
  <g
     inkscape:label="Layer 1"
     inkscape:groupmode="layer"
     id="layer1">
    <g
       id="g6653"
       transform="matrix(0.30644557,0,0,0.30644557,-17.616901,-31.66913)">
      <path
         style="fill:#a2a2a2;fill-opacity:1;stroke-width:0.23518519"
         d="m 78.961662,149.2493 c -3.060398,-0.77642 -5.82483,-2.36368 -8.210821,-4.71442 -2.597516,-2.55914 -2.641561,-2.87449 -0.470371,-3.36769 2.928285,-0.66519 5.727152,-1.08381 8.820038,-1.31918 1.688888,-0.12853 3.107744,-0.27072 3.153015,-0.31599 0.04527,-0.0453 -0.03435,-0.41698 -0.176944,-0.82601 -0.249819,-0.71663 -0.307674,-0.74369 -1.590001,-0.74369 -2.110021,0 -7.171761,0.6575 -10.075577,1.30877 -1.46504,0.32858 -2.77719,0.52729 -2.915889,0.44156 -0.351596,-0.21729 -1.043186,-1.89433 -1.472876,-3.57158 -1.164478,-4.5454 -0.437959,-9.44553 2.012695,-13.57495 0.571772,-0.96346 1.847717,-2.51286 3.054286,-3.70889 1.144049,-1.13405 2.072272,-2.25236 2.072272,-2.49664 0,-0.93161 1.748094,-3.93072 3.054722,-5.24082 5.789325,-5.80469 15.652291,-3.45032 18.3461,4.37937 0.259271,0.75358 0.471401,1.67562 0.471401,2.04896 0,0.47628 0.307133,1.00913 1.029358,1.78587 3.414395,3.67211 5.29501,8.52922 5.00001,12.91366 -0.0679,1.00878 -0.13063,2.07091 -0.13945,2.36029 -0.0263,0.86186 -1.15966,4.21024 -1.615733,4.77347 l -0.422957,0.52233 -2.102003,-0.49196 c -2.649288,-0.62004 -5.975181,-1.13861 -8.623782,-1.34461 l -2.053264,-0.15969 -0.249392,0.65595 c -0.401057,1.05486 -0.163668,1.28025 1.349925,1.28167 3.074237,0.003 10.617534,1.42714 10.821922,2.0433 0.162426,0.48966 -3.455374,4.03082 -5.279764,5.16791 -0.95667,0.59627 -2.659507,1.40384 -3.78408,1.7946 -1.788222,0.62136 -2.428161,0.72023 -5.102087,0.78827 -2.464447,0.0627 -3.41491,-0.0129 -4.900753,-0.38986 z"
         id="path6667"
         inkscape:connector-curvature="0" />
      <path
         style="fill:#434343;fill-opacity:1;stroke-width:0.23518519"
         d="m 78.961662,149.2493 c -3.060398,-0.77642 -5.82483,-2.36368 -8.210821,-4.71442 -2.597516,-2.55914 -2.641561,-2.87449 -0.470371,-3.36769 2.957765,-0.67189 5.742502,-1.08537 8.948856,-1.32875 1.757529,-0.1334 3.211987,-0.26614 3.232129,-0.29498 0.02016,-0.0288 -0.0563,-0.39639 -0.169877,-0.81679 -0.204896,-0.75841 -0.217878,-0.76435 -1.671125,-0.76435 -2.243055,0 -7.240088,0.6428 -10.256775,1.31938 -3.158192,0.70833 -3.097637,0.73387 -3.907366,-1.64831 -0.414057,-1.21814 -0.423499,-1.40121 -0.10195,-1.97668 0.590749,-1.05724 2.506274,-1.01527 2.998802,0.0657 0.148755,0.32648 0.434101,0.59361 0.634104,0.59361 0.568765,0 0.822369,-1.02515 0.822369,-3.32427 v -2.11772 l 2.458273,-1.15956 c 1.35205,-0.63776 2.62205,-1.15957 2.822222,-1.15957 0.302714,0 0.36395,0.37269 0.36395,2.21503 0,1.21826 0.06424,2.38243 0.142754,2.58703 0.112361,0.29281 0.512947,0.37202 1.881482,0.37202 0.9563,0 1.738727,-0.0838 1.738727,-0.18626 0,-0.44008 -2.54483,-4.5728 -4.019065,-6.52683 -0.882593,-1.16984 -1.946973,-2.85837 -2.365289,-3.75229 -2.761428,-5.90103 1.240329,-13.55077 7.827775,-14.96352 0.687218,-0.14738 2.113595,-0.21207 3.192248,-0.14478 4.56034,0.28451 8.571804,3.6381 9.74984,8.15088 0.848527,3.25052 0.331432,6.01301 -1.69176,9.03793 -0.643321,0.96184 -1.169675,1.80282 -1.169675,1.86883 0,0.066 0.3175,0.2307 0.705556,0.36598 0.68591,0.23911 0.705555,0.28833 0.705555,1.76766 0,2.01617 0.117598,2.26573 1.067647,2.26573 0.575282,0 0.821575,-0.12426 0.931253,-0.46982 0.182132,-0.57385 0.842542,-0.75849 2.367612,-0.66196 l 1.16034,0.0735 0.117593,1.76089 0.117592,1.7609 0.884541,0.14278 c 0.486502,0.0785 0.956682,0.21492 1.044852,0.30309 0.2076,0.20761 -0.77939,3.58194 -1.315957,4.499 -0.500349,0.85517 -0.599694,0.856 -4.505558,0.0377 -3.382341,-0.70864 -8.842558,-1.27969 -9.145999,-0.95653 -0.110158,0.11732 -0.269066,0.54044 -0.353128,0.94026 l -0.152842,0.72695 1.597973,0.0462 c 3.663663,0.10604 10.85481,1.45396 11.060197,2.07313 0.162426,0.48966 -3.455374,4.03082 -5.279764,5.16791 -0.95667,0.59627 -2.659507,1.40384 -3.78408,1.7946 -1.788222,0.62136 -2.428161,0.72023 -5.102087,0.78827 -2.464447,0.0627 -3.41491,-0.0129 -4.900753,-0.38986 z"
         id="path6665"
         inkscape:connector-curvature="0" />
      <path
         style="fill:#a2a2a2;fill-opacity:1;stroke-width:0.23518519"
         d="m 81.34833,149.47125 c -2.983784,-0.33839 -6.238434,-1.61949 -8.694327,-3.42229 -1.349383,-0.99053 -3.725847,-3.52607 -3.725847,-3.97524 0,-0.67662 5.603454,-1.69833 11.583992,-2.11216 2.422071,-0.1676 2.228928,-0.38466 2.877312,3.23363 0.225999,1.26118 0.4872,2.29306 0.580451,2.29306 0.09325,0 0.30211,-0.87313 0.464134,-1.94028 0.162023,-1.06715 0.417188,-2.31069 0.567033,-2.76343 l 0.272448,-0.82314 1.646297,0.0727 c 3.517785,0.15544 10.196273,1.3276 10.756594,1.88792 0.331371,0.33138 -2.665363,3.38878 -4.548761,4.64086 -3.488368,2.31906 -7.733428,3.36717 -11.779326,2.90833 z m 1.220687,-26.825 c -1.482979,-0.59134 -2.352357,-1.98948 -2.351093,-3.78105 0.002,-2.77363 2.528175,-4.57598 5.05906,-3.60943 1.251822,0.47808 2.125991,1.45317 2.479407,2.76565 0.79914,2.96778 -2.335145,5.76217 -5.187374,4.62483 z"
         id="path6659"
         inkscape:connector-curvature="0" />
    </g>
  </g>
</svg>
