<?xml version="1.0" encoding="UTF-8" standalone="no"?>
<!-- Created with Inkscape (http://www.inkscape.org/) -->

<svg
   xmlns:dc="http://purl.org/dc/elements/1.1/"
   xmlns:cc="http://creativecommons.org/ns#"
   xmlns:rdf="http://www.w3.org/1999/02/22-rdf-syntax-ns#"
   xmlns:svg="http://www.w3.org/2000/svg"
   xmlns="http://www.w3.org/2000/svg"
   xmlns:sodipodi="http://sodipodi.sourceforge.net/DTD/sodipodi-0.dtd"
   xmlns:inkscape="http://www.inkscape.org/namespaces/inkscape"
   width="16px"
   height="16px"
   viewBox="0 0 16 16"
   version="1.1"
   id="SVGRoot"
   inkscape:version="0.92.5 (2060ec1f9f, 2020-04-08)"
   sodipodi:docname="JWT.svg">
  <defs
     id="defs815" />
  <sodipodi:namedview
     id="base"
     pagecolor="#ffffff"
     bordercolor="#666666"
     borderopacity="1.0"
     inkscape:pageopacity="0.0"
     inkscape:pageshadow="2"
     inkscape:zoom="16"
     inkscape:cx="-5.21875"
     inkscape:cy="8"
     inkscape:document-units="px"
     inkscape:current-layer="layer1"
     showgrid="false"
     inkscape:window-width="1848"
     inkscape:window-height="1136"
     inkscape:window-x="72"
     inkscape:window-y="27"
     inkscape:window-maximized="1"
     inkscape:grid-bbox="true" />
  <metadata
     id="metadata818">
    <rdf:RDF>
      <cc:Work
         rdf:about="">
        <dc:format>image/svg+xml</dc:format>
        <dc:type
           rdf:resource="http://purl.org/dc/dcmitype/StillImage" />
        <dc:title></dc:title>
      </cc:Work>
    </rdf:RDF>
  </metadata>
  <g
     inkscape:label="Layer 1"
     inkscape:groupmode="layer"
     id="layer1">
    <g
       transform="matrix(0.07809041,0,0,0.07809041,3.5284693,-11.767539)"
       id="g5937"
       inkscape:transform-center-x="1.6875"
       inkscape:transform-center-y="3.1875">
      <path
         style="fill:#434343;fill-opacity:1;stroke-width:0.11024306"
         d="m -4.4058072,278.36777 c -0.036805,-0.0959 -0.066916,-2.7004 -0.066916,-5.78776 0,-3.57012 -0.039098,-5.61338 -0.107412,-5.61338 -0.059077,0 -0.1780216,0.13654 -0.264321,0.30343 -0.086301,0.16689 -0.2612066,0.39782 -0.3886817,0.51318 -0.1274752,0.11536 -0.2317728,0.25753 -0.2317728,0.31592 0,0.0584 -0.1364258,0.26953 -0.3031684,0.4692 -0.1667427,0.19967 -0.4271919,0.54406 -0.5787761,0.7653 -0.1515842,0.22124 -0.4244357,0.59475 -0.6063368,0.83002 -0.181901,0.23527 -0.4547526,0.60734 -0.6063368,0.82682 -0.1515842,0.21949 -0.4244358,0.59156 -0.6063368,0.82683 -0.1819011,0.23527 -0.4434637,0.59196 -0.581251,0.79265 -0.5832729,0.84957 -1.1072361,1.57955 -1.6375214,2.28139 -0.310819,0.41137 -0.622624,0.85538 -0.692898,0.98669 -0.08825,0.16489 -0.232011,0.23875 -0.464746,0.23875 -0.322611,0 -0.535722,-0.1257 -1.355081,-0.79927 -0.202836,-0.16674 -0.405302,-0.30316 -0.449927,-0.30316 -0.04462,0 -0.244503,-0.13643 -0.444174,-0.30317 -0.199673,-0.16675 -0.544058,-0.42719 -0.7653,-0.57878 -0.221244,-0.15158 -0.594752,-0.42443 -0.830022,-0.60634 -0.23527,-0.1819 -0.609247,-0.45475 -0.831063,-0.60633 -0.221815,-0.15159 -0.547028,-0.39963 -0.722695,-0.55122 l -0.319396,-0.27561 0.325934,-0.49609 c 0.179264,-0.27285 0.464299,-0.68064 0.63341,-0.9062 0.16911,-0.22555 0.576042,-0.79606 0.904293,-1.26779 0.328252,-0.47173 0.833964,-1.18015 1.123805,-1.57427 0.289842,-0.39412 0.641391,-0.88079 0.781219,-1.08148 0.139828,-0.20069 0.403061,-0.55739 0.584962,-0.79266 0.181901,-0.23526 0.454752,-0.60565 0.606336,-0.82307 0.151585,-0.21742 0.529914,-0.73307 0.840734,-1.1459 0.770088,-1.02281 0.875758,-1.23072 0.686491,-1.35065 -0.192769,-0.12215 -0.286899,-0.1216 -0.363371,0.002 -0.03401,0.055 -0.346994,0.18401 -0.695526,0.28663 -0.348531,0.10263 -0.732911,0.22558 -0.854178,0.27324 -0.121268,0.0477 -0.443729,0.14757 -0.71658,0.22203 -0.272852,0.0745 -0.595313,0.17367 -0.71658,0.22048 -0.121267,0.0468 -0.443728,0.14521 -0.71658,0.21867 -0.272851,0.0734 -0.582236,0.17833 -0.687523,0.23305 -0.105287,0.0547 -0.288394,0.0995 -0.406905,0.0995 -0.118512,0 -0.246136,0.0496 -0.28361,0.11024 -0.03747,0.0606 -0.186302,0.11025 -0.330729,0.11025 -0.144428,0 -0.293256,0.0496 -0.330729,0.11024 -0.03747,0.0606 -0.186302,0.11024 -0.33073,0.11024 -0.144427,0 -0.293255,0.0496 -0.330729,0.11024 -0.03747,0.0606 -0.211106,0.11025 -0.38585,0.11025 -0.174745,0 -0.348377,0.0496 -0.385851,0.11024 -0.03747,0.0606 -0.186302,0.11024 -0.330729,0.11024 -0.144428,0 -0.293256,0.0496 -0.33073,0.11025 -0.03747,0.0606 -0.176827,0.11182 -0.309674,0.11375 -0.132848,0.002 -0.335666,0.0747 -0.450707,0.16183 -0.115042,0.0871 -0.251381,0.13224 -0.302975,0.10035 -0.0516,-0.0319 -0.204153,0.0193 -0.339018,0.11377 -0.134865,0.0945 -0.348273,0.17175 -0.474239,0.17175 -0.125966,0 -0.283234,0.0542 -0.349485,0.12046 -0.234367,0.23436 -0.554968,-0.0878 -0.748754,-0.75242 -0.101967,-0.34971 -0.230882,-0.72198 -0.286478,-0.82726 -0.0556,-0.10529 -0.101083,-0.2884 -0.101083,-0.40691 0,-0.11851 -0.04961,-0.24613 -0.110243,-0.28361 -0.06063,-0.0375 -0.110243,-0.1863 -0.110243,-0.33073 0,-0.14442 -0.04961,-0.29325 -0.110243,-0.33073 -0.06063,-0.0375 -0.110243,-0.1863 -0.110243,-0.33073 0,-0.14442 -0.04961,-0.29325 -0.110243,-0.33072 -0.06063,-0.0375 -0.110243,-0.21111 -0.110243,-0.38586 0,-0.17474 -0.04961,-0.34837 -0.110243,-0.38585 -0.06063,-0.0375 -0.110243,-0.1863 -0.110243,-0.33073 0,-0.14442 -0.04961,-0.29325 -0.110243,-0.33072 -0.06063,-0.0375 -0.110243,-0.17931 -0.110243,-0.31519 0,-0.13588 -0.05279,-0.29984 -0.117314,-0.36437 -0.170775,-0.17077 -0.08119,-1.04519 0.117314,-1.14513 0.09095,-0.0458 0.388606,-0.14249 0.661458,-0.2149 0.272852,-0.0724 0.582237,-0.17642 0.687523,-0.23114 0.105286,-0.0547 0.288394,-0.0995 0.406905,-0.0995 0.118512,0 0.246137,-0.0496 0.28361,-0.11024 0.03747,-0.0606 0.186302,-0.11025 0.330729,-0.11025 0.144428,0 0.293256,-0.0496 0.33073,-0.11024 0.03747,-0.0606 0.165098,-0.11024 0.283609,-0.11024 0.118512,0 0.301619,-0.0437 0.406906,-0.0972 0.19001,-0.0965 1.117956,-0.41474 2.175804,-0.74626 0.303168,-0.095 0.650434,-0.2113 0.771701,-0.25842 0.121268,-0.0471 0.443729,-0.14658 0.71658,-0.22104 0.272852,-0.0745 0.595313,-0.17367 0.71658,-0.22049 0.121268,-0.0468 0.443728,-0.14521 0.71658,-0.21866 0.272852,-0.0735 0.582237,-0.17833 0.687523,-0.23305 0.105287,-0.0547 0.2814,-0.0995 0.391363,-0.0995 0.109963,0 0.247062,-0.0454 0.304664,-0.10091 0.0576,-0.0555 0.228755,-0.11751 0.380339,-0.1378 0.303834,-0.0407 0.369783,-0.29611 0.110243,-0.42699 -0.09095,-0.0459 -0.686263,-0.24324 -1.322917,-0.43862 -0.636653,-0.19537 -1.256771,-0.39321 -1.378038,-0.43963 -0.121267,-0.0464 -0.766189,-0.26251 -1.43316,-0.48017 -2.556843,-0.83444 -3.313659,-1.09085 -3.498721,-1.18539 -0.105286,-0.0538 -0.288393,-0.0978 -0.406905,-0.0978 -0.118512,0 -0.246136,-0.0496 -0.28361,-0.11025 -0.03747,-0.0606 -0.186302,-0.11024 -0.330729,-0.11024 -0.144427,0 -0.293255,-0.0496 -0.330729,-0.11024 -0.03747,-0.0606 -0.186302,-0.11024 -0.330729,-0.11024 -0.144428,0 -0.293256,-0.0496 -0.330729,-0.11025 -0.03747,-0.0606 -0.181541,-0.11024 -0.320149,-0.11024 -0.316378,0 -0.616917,-0.32266 -0.616917,-0.66231 0,-0.2698 0.177344,-0.90749 0.344262,-1.23789 0.05319,-0.10528 0.09671,-0.26719 0.09671,-0.35978 0,-0.0926 0.04451,-0.2545 0.09892,-0.35979 0.05441,-0.10529 0.208329,-0.5635 0.342053,-1.01825 0.133724,-0.45475 0.287648,-0.91297 0.342053,-1.01825 0.05441,-0.10529 0.09892,-0.2884 0.09892,-0.40691 0,-0.11851 0.04961,-0.24614 0.110243,-0.28361 0.06063,-0.0375 0.110243,-0.1651 0.110243,-0.28361 0,-0.11851 0.04377,-0.30162 0.09728,-0.4069 0.0535,-0.10529 0.141316,-0.34026 0.195144,-0.52216 0.06295,-0.21275 0.181456,-0.34276 0.332181,-0.36445 0.212316,-0.0306 4.12595,1.18395 4.582888,1.42219 0.105286,0.0549 0.288393,0.0998 0.406905,0.0998 0.118512,0 0.246136,0.0496 0.28361,0.11024 0.03747,0.0606 0.165098,0.11025 0.28361,0.11025 0.118511,0 0.301618,0.0445 0.406905,0.0989 0.105287,0.0544 0.5635,0.20915 1.018252,0.34386 0.454753,0.13472 0.926042,0.28273 1.047309,0.32893 0.121268,0.0462 0.592557,0.1965 1.047309,0.33402 0.454753,0.13752 1.039397,0.31706 1.299209,0.39898 0.259812,0.0819 0.522645,0.14894 0.584072,0.14894 0.104117,0 -0.201374,-0.47485 -0.914703,-1.4218 -0.16457,-0.21846 -0.401223,-0.58324 -0.525896,-0.81062 -0.124671,-0.22738 -0.266143,-0.41341 -0.314379,-0.41341 -0.04824,0 -0.1988,-0.18604 -0.334586,-0.41341 -0.135787,-0.22738 -0.394667,-0.61185 -0.57529,-0.85439 -0.180625,-0.24253 -0.451943,-0.6146 -0.602931,-0.82682 -0.150989,-0.21222 -0.42384,-0.58429 -0.606336,-0.82682 -0.182498,-0.24254 -0.447391,-0.61534 -0.588653,-0.82844 -0.141261,-0.21311 -0.338,-0.45483 -0.437197,-0.53716 -0.0992,-0.0823 -0.180358,-0.19907 -0.180358,-0.25943 0,-0.0604 -0.136426,-0.27723 -0.303169,-0.48192 -0.166742,-0.20469 -0.439594,-0.54051 -0.606337,-0.74626 -0.166742,-0.20576 -0.303168,-0.42323 -0.303168,-0.48328 0,-0.06 -0.07441,-0.17093 -0.165365,-0.24641 -0.281062,-0.23326 -0.188457,-0.53387 0.249666,-0.81045 0.228266,-0.1441 0.482387,-0.34316 0.564713,-0.44235 0.08233,-0.0992 0.199073,-0.18036 0.259436,-0.18036 0.06036,0 0.27312,-0.13643 0.472791,-0.30317 0.199672,-0.16674 0.543737,-0.42719 0.764591,-0.57878 0.220852,-0.15158 0.584932,-0.41512 0.809066,-0.58564 2.31206,-1.75901 2.373422,-1.78204 2.845948,-1.068 0.160502,0.24253 0.325651,0.44097 0.366996,0.44097 0.04135,0 0.158793,0.16123 0.260993,0.35829 0.1022,0.19706 0.359187,0.58153 0.5710847,0.85438 0.211896,0.27286 0.507838,0.66973 0.6576483,0.88195 0.1498104,0.21222 0.4216985,0.58429 0.6041959,0.82682 0.1824964,0.24254 0.4502999,0.61533 0.5951174,0.82844 0.1448186,0.21311 0.3444666,0.45483 0.4436633,0.53716 0.099198,0.0823 0.1803587,0.19907 0.1803587,0.25943 0,0.0604 0.1364258,0.27723 0.3031684,0.48192 0.8077443,0.99157 0.9095052,1.12593 0.9095052,1.20092 0,0.0443 0.1364258,0.24187 0.3031684,0.43903 0.1667427,0.19716 0.5001055,0.6378 0.740808,0.97918 0.4681659,0.66401 0.5484173,0.71886 0.6529961,0.44633 0.036805,-0.0959 0.066916,-2.53504 0.066916,-5.42029 0,-2.88524 0.037207,-5.20875 0.082682,-5.16334 0.075511,0.0754 0.1952493,7.77999 0.2263004,14.56139 0.014423,3.15007 -0.00216,3.21884 -0.6964032,2.88778 -0.215469,-0.10275 -0.4863692,-0.18682 -0.602001,-0.18682 -0.1156317,0 -0.2408998,-0.0496 -0.2783736,-0.11024 -0.037474,-0.0606 -0.186302,-0.11025 -0.3307292,-0.11025 -0.1444272,0 -0.2932553,-0.0496 -0.3307292,-0.11024 -0.037474,-0.0606 -0.1863019,-0.11024 -0.3307291,-0.11024 -0.1444272,0 -0.2932554,-0.0496 -0.3307292,-0.11025 -0.037474,-0.0606 -0.1863019,-0.11024 -0.3307292,-0.11024 -0.1444272,0 -0.2932553,-0.0496 -0.3307291,-0.11024 -0.037474,-0.0606 -0.2041128,-0.11024 -0.3703087,-0.11024 -0.1661958,0 -0.3493029,-0.043 -0.4069049,-0.0957 -0.1486021,-0.13574 -0.8213107,-0.24813 -0.8213107,-0.13722 0,0.0508 0.1364257,0.27074 0.3031684,0.4888 0.1667426,0.21806 0.4271918,0.57512 0.578776,0.79346 0.3140858,0.45242 0.8493522,1.15929 1.2620824,1.66671 0.1547261,0.19022 0.2813204,0.39337 0.2813204,0.45145 0,0.0581 0.099219,0.19538 0.2204861,0.30512 0.4656678,0.42143 0.1827565,0.705 -1.1046685,1.10725 -0.5141549,0.16064 -1.0209709,0.3369 -1.1262574,0.39168 -0.1052865,0.0548 -0.2883936,0.0996 -0.4069049,0.0996 -0.1185124,0 -0.2461364,0.0496 -0.2836102,0.11024 -0.037474,0.0606 -0.1863019,0.11024 -0.3307292,0.11024 -0.1444272,0 -0.2932548,0.0496 -0.3307288,0.11025 -0.03747,0.0606 -0.183156,0.11024 -0.323736,0.11024 -0.288265,0 -0.558795,0.26164 -0.45095,0.43614 0.03912,0.0633 0.189287,0.11507 0.333714,0.11507 0.144427,0 0.293255,0.0496 0.330729,0.11025 0.03747,0.0606 0.165098,0.11024 0.2836098,0.11024 0.1185113,0 0.3016184,0.0448 0.4069049,0.0995 0.1052866,0.0547 0.4146716,0.16065 0.6875231,0.23539 1.0498314,0.28757 1.2739048,0.35672 1.4592245,0.45034 0.1052866,0.0532 0.2826742,0.0967 0.394195,0.0967 0.1115208,0 0.3152411,0.11973 0.452712,0.26606 l 0.2499475,0.26606 -0.2868359,0.48945 c -0.15776,0.26919 -0.3856126,0.57884 -0.5063386,0.68809 -0.1207261,0.10926 -0.2195017,0.25609 -0.2195017,0.3263 0,0.0702 -0.1488281,0.27024 -0.3307292,0.44451 -0.181901,0.17428 -0.3307291,0.36304 -0.3307291,0.41949 0,0.0564 -0.1364258,0.26858 -0.3031684,0.47141 -0.8474516,1.03089 -0.958667,1.25884 -0.6141641,1.25884 0.1864221,0 0.7844058,-0.17218 1.1929401,-0.34349 0.1212674,-0.0508 0.468533,-0.1705 0.7717014,-0.26589 0.3031684,-0.0954 0.650434,-0.21463 0.7717014,-0.26499 0.1212674,-0.0504 0.581843,-0.20563 1.0235009,-0.34504 0.6955356,-0.21956 0.8235951,-0.23238 0.9567676,-0.0958 0.1726659,0.17707 0.1821546,1.31285 0.098252,11.75959 -0.033285,4.14431 -0.011617,6.04755 0.070597,6.20117 0.1144643,0.21388 0.2260986,0.22165 3.18446331,0.22165 2.85745369,0 3.07855169,-0.014 3.25286359,-0.20666 0.1718215,-0.18986 0.1844113,-0.68496 0.1548904,-6.09093 -0.031377,-5.7457 -0.037649,-5.8953 -0.2663494,-6.3528 -0.1786434,-0.35737 -0.1982623,-0.46853 -0.082682,-0.46853 0.1239176,0 0.1515335,-0.43817 0.1515335,-2.40428 0,-2.97205 -0.011711,-2.94213 1.0091329,-2.57795 0.384799,0.13728 1.0965094,0.37665 1.5815789,0.53193 0.4850694,0.15529 0.9680873,0.32717 1.0733738,0.38195 0.1052865,0.0548 0.2883936,0.0996 0.4069049,0.0996 0.1185124,0 0.2427486,0.0441 0.2760817,0.0981 0.081934,0.13257 0.8343514,0.21388 0.8343514,0.0902 0,-0.0944 -0.1706044,-0.33642 -0.7765455,-1.10178 -0.1542487,-0.19483 -0.363565,-0.47826 -0.4651463,-0.62985 -0.1015824,-0.15158 -0.3328888,-0.47404 -0.514016,-0.71658 -0.181126,-0.24253 -0.5145043,-0.7083 -0.7408399,-1.03504 L 4.6357089,257.455 4.9383371,257.19469 c 0.1664461,-0.14317 0.3997546,-0.26031 0.5184632,-0.26031 0.1187097,0 0.3019778,-0.0445 0.4072643,-0.0989 0.1052865,-0.0544 0.5634997,-0.20915 1.0182523,-0.34386 0.4547526,-0.13472 0.9260416,-0.28299 1.047309,-0.32949 0.1212674,-0.0465 0.4437283,-0.14844 0.7165799,-0.22653 0.2728515,-0.0781 0.5411203,-0.18086 0.5961525,-0.22838 0.1414242,-0.12212 -0.1373716,-0.42647 -0.3906606,-0.42647 -0.114666,0 -0.2946267,-0.0445 -0.3999133,-0.0989 -0.1052865,-0.0544 -0.5634996,-0.20833 -1.0182523,-0.34205 -0.4547526,-0.13373 -0.9129657,-0.28765 -1.0182522,-0.34206 -0.1052866,-0.0544 -0.2883937,-0.0989 -0.4069049,-0.0989 -0.1185124,0 -0.2461364,-0.0496 -0.2836102,-0.11024 -0.037474,-0.0606 -0.1856295,-0.11024 -0.3292343,-0.11024 -0.3518374,0 -0.7551429,-0.50671 -0.6016636,-0.75592 0.3971186,-0.64483 0.7656568,-1.15868 1.2340663,-1.72066 0.1667426,-0.20005 0.3031684,-0.40024 0.3031684,-0.44486 0,-0.0446 0.1364258,-0.24709 0.3031684,-0.44993 0.8453482,-1.02833 0.9584333,-1.25884 0.6175573,-1.25884 -0.2016775,0 -2.4089463,0.72276 -2.7106794,0.88761 -0.1052865,0.0575 -0.2883936,0.10458 -0.4069049,0.10458 -0.1185124,0 -0.2461364,0.0496 -0.2836102,0.11024 -0.037474,0.0606 -0.1863019,0.11024 -0.3307291,0.11024 -0.1444273,0 -0.2932554,0.0496 -0.3307292,0.11025 -0.09418,0.15238 -0.5340626,0.13842 -0.6945313,-0.0221 -0.094983,-0.095 -0.1322916,-0.8256 -0.1322916,-2.59071 0,-2.01204 -0.027515,-2.45842 -0.1515335,-2.45842 -0.1159757,0 -0.097183,-0.10986 0.080089,-0.46816 0.2280808,-0.46099 0.2310904,-0.55918 0.1967817,-6.4206 -0.019164,-3.27384 -0.058131,-5.99013 -0.086596,-6.03619 -0.028465,-0.0461 -1.4711892,-0.0837 -3.20605551,-0.0837 -2.83947529,0 -3.17540349,0.0191 -3.36573599,0.19135 -0.2043035,0.18489 -0.210175,0.18024 -0.1740451,-0.1378 l 0.03739,-0.32915 3.38051949,-0.0291 c 3.02013171,-0.026 3.39992671,-0.01 3.56256061,0.1529 0.1666191,0.16661 0.175325,0.66639 0.1027763,5.89958 -0.051448,3.71109 -0.041382,5.71754 0.028683,5.71754 0.1266384,0 0.587353,-0.46976 0.587353,-0.59889 0,-0.0487 0.1364258,-0.25195 0.3031684,-0.45162 0.1667426,-0.19967 0.4271918,-0.5455 0.578776,-0.7685 0.1515842,-0.223 0.4120334,-0.56882 0.5787761,-0.7685 0.1667426,-0.19967 0.3031684,-0.39955 0.3031684,-0.44417 0,-0.0446 0.1364258,-0.24861 0.3031684,-0.4533 0.8077442,-0.99157 0.9095052,-1.12594 0.9095052,-1.20092 0,-0.0443 0.1364258,-0.24393 0.3031684,-0.4436 0.1667426,-0.19967 0.4271918,-0.5455 0.578776,-0.7685 0.1515842,-0.223 0.4120335,-0.56883 0.5787761,-0.7685 0.1667426,-0.19967 0.3031684,-0.39327 0.3031684,-0.43021 0,-0.037 0.1612305,-0.28097 0.3582899,-0.54227 0.1970595,-0.2613 0.4575087,-0.61876 0.5787761,-0.79437 0.6360164,-0.92101 1.009212,-1.07504 1.443106,-0.59559 0.104275,0.11522 0.237364,0.2095 0.295754,0.2095 0.05839,0 0.269166,0.13642 0.468391,0.30317 0.199225,0.16674 0.740737,0.57602 1.203362,0.9095 0.462624,0.33349 1.174336,0.85701 1.58158,1.16339 0.407245,0.30638 0.900121,0.65102 1.095278,0.76587 0.598291,0.35208 0.596035,0.3609 -0.465075,1.8173 -0.121268,0.16644 -0.40534,0.56978 -0.631271,0.89631 -0.68455,0.98933 -0.778507,1.11928 -1.323664,1.83075 -0.289044,0.37722 -0.525534,0.71794 -0.525534,0.75715 0,0.0392 -0.136426,0.23466 -0.303169,0.43433 -0.166742,0.19967 -0.427191,0.54405 -0.578776,0.7653 -0.151584,0.22124 -0.424435,0.59475 -0.606336,0.83002 -0.181901,0.23527 -0.454753,0.60878 -0.606337,0.83002 -0.1515842,0.22124 -0.3996311,0.55908 -0.5512153,0.75075 -0.2655402,0.33575 -0.5512153,0.7946 -0.5512153,0.88534 0,0.0925 0.4435894,0.15443 0.4961886,0.0693 0.03049,-0.0493 0.3405981,-0.17367 0.689129,-0.27629 0.348531,-0.10262 0.732911,-0.22558 0.854179,-0.27324 0.121267,-0.0477 0.443728,-0.14757 0.71658,-0.22202 0.272851,-0.0745 0.595312,-0.17368 0.71658,-0.22049 0.121267,-0.0468 0.443728,-0.14521 0.716579,-0.21866 0.272852,-0.0735 0.582237,-0.17833 0.687523,-0.23306 0.105287,-0.0547 0.288394,-0.0995 0.406905,-0.0995 0.118513,0 0.246137,-0.0496 0.283611,-0.11025 0.03747,-0.0606 0.211106,-0.11024 0.38585,-0.11024 0.174744,0 0.348377,-0.0496 0.385851,-0.11024 0.03747,-0.0606 0.186302,-0.11025 0.330729,-0.11025 0.144427,0 0.293255,-0.0496 0.330729,-0.11024 0.03747,-0.0606 0.186302,-0.11024 0.330729,-0.11024 0.144428,0 0.293256,-0.0496 0.33073,-0.11025 0.03747,-0.0606 0.176827,-0.11182 0.309675,-0.11374 0.132847,-0.002 0.333178,-0.0729 0.445181,-0.1578 0.112002,-0.0848 0.268215,-0.1295 0.347139,-0.0992 0.07892,0.0303 0.173412,0.007 0.209975,-0.0525 0.03656,-0.0591 0.351639,-0.19106 0.70017,-0.29311 0.348532,-0.10205 0.739546,-0.22698 0.868922,-0.2776 0.279131,-0.10923 0.701837,0.13989 0.701837,0.41362 0,0.202 0.198231,0.86858 0.344263,1.15763 0.05319,0.10529 0.09671,0.2884 0.09671,0.40691 0,0.11851 0.04961,0.24614 0.110243,0.28361 0.06063,0.0375 0.110243,0.1863 0.110243,0.33073 0,0.14443 0.04961,0.29325 0.110243,0.33073 0.06063,0.0375 0.110243,0.1863 0.110243,0.33073 0,0.14442 0.04961,0.29325 0.110243,0.33073 0.06063,0.0375 0.110244,0.16509 0.110244,0.28361 0,0.11851 0.04503,0.30161 0.10007,0.4069 0.13351,0.2554 0.456059,1.30319 0.558669,1.81482 0.09089,0.45322 -0.09875,0.85708 -0.402472,0.85708 -0.19269,0 -1.529127,0.41279 -1.825735,0.56392 -0.105287,0.0537 -0.288394,0.0975 -0.406905,0.0975 -0.118512,0 -0.246136,0.0496 -0.28361,0.11024 -0.03747,0.0606 -0.186302,0.11024 -0.330729,0.11024 -0.144428,0 -0.293256,0.0496 -0.330729,0.11025 -0.03747,0.0606 -0.165098,0.11024 -0.283611,0.11024 -0.118511,0 -0.301618,0.0448 -0.406905,0.0995 -0.105286,0.0547 -0.414671,0.15903 -0.687523,0.23178 -0.272851,0.0728 -0.632519,0.20442 -0.799262,0.29259 -0.166742,0.0882 -0.303168,0.12698 -0.303168,0.0863 0,-0.0407 -0.122279,0.006 -0.27173,0.10401 -0.149451,0.0979 -0.369765,0.17805 -0.489587,0.17805 -0.119822,0 -0.248518,0.0496 -0.285992,0.11024 -0.03747,0.0606 -0.165098,0.11024 -0.28361,0.11024 -0.118512,0 -0.301619,0.0448 -0.406905,0.0995 -0.105287,0.0547 -0.414672,0.15878 -0.687523,0.23123 -0.272852,0.0725 -0.582237,0.17651 -0.687524,0.23123 -0.105286,0.0547 -0.288393,0.0995 -0.406904,0.0995 -0.118513,0 -0.246137,0.0496 -0.283611,0.11025 -0.03747,0.0606 -0.176827,0.11182 -0.309675,0.11374 -0.30763,0.004 -0.671964,0.27616 -0.576802,0.43014 0.03997,0.0647 0.169631,0.11757 0.288143,0.11757 0.118511,0 0.301618,0.0445 0.406905,0.0989 0.105287,0.0544 0.5635,0.20914 1.018252,0.34386 0.454753,0.13471 0.926042,0.28256 1.047309,0.32854 0.121268,0.046 1.262283,0.41642 2.535591,0.82319 1.273307,0.40678 2.401247,0.78493 2.506533,0.84034 0.105287,0.0554 0.288394,0.10074 0.406905,0.10074 0.118512,0 0.246136,0.0496 0.28361,0.11025 0.03747,0.0606 0.165098,0.11024 0.28361,0.11024 0.118512,0 0.301619,0.0435 0.406905,0.0967 0.291063,0.14704 0.956195,0.34426 1.161053,0.34426 0.100246,0 0.256175,0.14293 0.346508,0.31761 0.153256,0.29636 0.138042,0.40143 -0.227499,1.57096 -0.215457,0.68935 -0.436919,1.3395 -0.492139,1.44479 -0.05522,0.10529 -0.1004,0.28839 -0.1004,0.4069 0,0.11852 -0.04961,0.24614 -0.110243,0.28361 -0.06063,0.0375 -0.110243,0.18631 -0.110243,0.33073 0,0.14443 -0.04961,0.29326 -0.110243,0.33073 -0.06063,0.0375 -0.110243,0.1651 -0.110243,0.28361 0,0.11851 -0.04421,0.30162 -0.09825,0.40691 -0.05404,0.10528 -0.190876,0.48908 -0.304082,0.85288 -0.250738,0.80577 -0.356573,0.83699 -1.481895,0.43714 -0.4492,-0.15961 -0.953759,-0.31658 -1.121243,-0.34882 -0.167485,-0.0322 -0.331644,-0.1025 -0.364797,-0.15615 -0.03315,-0.0536 -0.157242,-0.0975 -0.275754,-0.0975 -0.118511,0 -0.301619,-0.0445 -0.406905,-0.0989 -0.105287,-0.0544 -0.5635,-0.20833 -1.018252,-0.34205 -0.454753,-0.13373 -0.912966,-0.28765 -1.018253,-0.34206 -0.105286,-0.0544 -0.288393,-0.0989 -0.406905,-0.0989 -0.118512,0 -0.246136,-0.0496 -0.28361,-0.11025 -0.03747,-0.0606 -0.165098,-0.11024 -0.28361,-0.11024 -0.118511,0 -0.301618,-0.0445 -0.406905,-0.0989 -0.105286,-0.0544 -0.5635,-0.21052 -1.018252,-0.34692 -0.454753,-0.1364 -1.248503,-0.3842 -1.763889,-0.55068 -1.1670924,-0.37697 -1.5451808,-0.46456 -1.5370471,-0.35606 0.00786,0.10491 0.6175408,0.98507 1.4332701,2.06916 0.182497,0.24253 0.452439,0.6146 0.599871,0.82682 0.147431,0.21222 0.416488,0.58429 0.597904,0.82683 0.181416,0.24253 0.46068,0.65181 0.620587,0.9095 0.159907,0.25769 0.329618,0.46853 0.377134,0.46853 0.04752,0 0.14601,0.14393 0.218875,0.31984 0.07286,0.17592 0.252516,0.43261 0.399225,0.57044 0.146709,0.13782 0.266743,0.2974 0.266743,0.35462 0,0.0572 0.136426,0.2674 0.303169,0.46707 0.166743,0.19968 0.427192,0.5455 0.578776,0.7685 0.151584,0.223 0.412033,0.56883 0.578776,0.7685 0.166743,0.19967 0.303168,0.41243 0.303168,0.47279 0,0.0604 0.07441,0.17151 0.165365,0.24699 0.281062,0.23326 0.188457,0.53388 -0.249665,0.81045 -0.228266,0.1441 -0.482388,0.34316 -0.564714,0.44235 -0.08233,0.0992 -0.199072,0.18036 -0.259436,0.18036 -0.06036,0 -0.273429,0.13643 -0.473479,0.30317 -0.403662,0.33645 -0.832299,0.65897 -1.208782,0.90951 -0.136671,0.091 -0.379553,0.26458 -0.539738,0.38585 -2.1330853,1.61484 -2.2033278,1.64036 -2.6556936,0.96462 -0.1522159,-0.22737 -0.3943096,-0.58791 -0.5379839,-0.80119 -0.1436754,-0.21328 -0.3422187,-0.455 -0.4412071,-0.53715 -0.098988,-0.0822 -0.1799784,-0.19876 -0.1799784,-0.25912 0,-0.0604 -0.1364257,-0.27723 -0.3031684,-0.48192 -0.1667426,-0.20469 -0.4395941,-0.54051 -0.6063368,-0.74626 -0.1667426,-0.20576 -0.3031684,-0.42323 -0.3031684,-0.48328 0,-0.06 -0.081161,-0.17653 -0.1803587,-0.25886 -0.099197,-0.0823 -0.2959354,-0.32404 -0.4371964,-0.53715 C 6.2337451,271.38533 5.968852,271.01253 5.7863546,270.77 5.2208386,270.01844 4.4442688,268.93296 4.0574083,268.35331 3.89872,268.11554 3.6756564,267.82093 3.5617125,267.69862 3.4477686,267.57632 3.3545416,267.436 3.3545416,267.3868 c 0,-0.12697 -0.4192731,-0.53043 -0.5512153,-0.53043 -0.072109,0 -0.1102431,2.02112 -0.1102431,5.84288 v 5.84288 h -3.51598286 c -3.10441914,0 -3.52381564,-0.0204 -3.58289934,-0.17438 z m 36.2151722,-6.19706 c -0.139753,-0.26113 -0.159252,-4.24332 -0.02249,-4.59299 0.06348,-0.16231 0.271217,-0.25023 0.838713,-0.35497 1.866552,-0.34449 3.281174,-1.62776 3.741008,-3.39365 0.149672,-0.57478 0.171097,-2.19293 0.171097,-12.92212 0,-12.01327 0.0044,-12.2674 0.213239,-12.37918 0.126544,-0.0677 1.107114,-0.11412 2.411848,-0.11412 1.7361,0 2.225202,0.032 2.325019,0.15231 0.09384,0.11307 0.118621,3.4578 0.09618,12.98112 l -0.03023,12.82881 -0.30915,0.98693 c -1.191183,3.80275 -4.670444,6.66529 -8.47061,6.96916 -0.775948,0.062 -0.851894,0.0493 -0.964627,-0.1613 z m 31.792999,0.0152 c -3.835488,-0.81833 -6.860856,-3.91646 -7.652725,-7.83678 -0.171624,-0.84967 -0.170096,-25.57619 0.0016,-25.78306 0.100067,-0.12057 0.589848,-0.15205 2.345402,-0.15071 1.220408,9.2e-4 2.293338,0.0487 2.384288,0.10619 0.144877,0.0916 0.172194,1.65868 0.220486,12.64871 0.05456,12.41738 0.05746,12.54987 0.286046,13.10578 0.523728,1.27366 1.487872,2.25177 2.647172,2.68552 2.121732,0.79384 4.418398,0.0501 5.617668,-1.81916 0.722145,-1.1256 0.709231,-0.95896 0.712375,-9.19253 0.0028,-7.42549 0.05965,-8.95149 0.379936,-10.20504 0.451617,-1.76755 1.768111,-3.76912 3.348521,-5.09104 0.94064,-0.78678 2.854724,-1.72066 4.040834,-1.97152 1.154012,-0.24407 3.047272,-0.24207 4.134115,0.004 1.108296,0.2513 3.081327,1.21769 3.990843,1.95471 1.73549,1.40635 3.005556,3.48813 3.517128,5.76495 0.08207,0.36526 0.147516,3.39636 0.194006,8.98481 l 0.07016,8.43359 0.351124,0.74121 c 1.134301,2.39445 3.829369,3.3639 6.259159,2.25151 0.720031,-0.32964 1.692353,-1.25696 2.048548,-1.95372 0.557036,-1.08963 0.543763,-0.7524 0.545152,-13.84688 0.0012,-10.9943 0.01915,-12.2745 0.174548,-12.4299 0.241487,-0.24148 4.57806,-0.26048 4.77686,-0.0209 0.0938,0.11307 0.11862,3.4578 0.0962,12.98112 -0.0344,14.57698 0.0424,13.38803 -0.9948,15.4074 -0.99488,1.93692 -2.4891,3.42736 -4.399557,4.38843 -1.524904,0.76711 -2.415414,0.96877 -4.282138,0.96969 -1.611323,7.7e-4 -2.051557,-0.0678 -3.300522,-0.51402 -2.75912,-0.98585 -5.219149,-3.59647 -6.059576,-6.4305 -0.398617,-1.34421 -0.449693,-2.51337 -0.45063,-10.31528 -0.0011,-8.21129 0.0036,-8.14235 -0.621748,-9.21166 -0.319584,-0.54641 -1.285313,-1.48145 -1.810897,-1.75337 -1.326733,-0.68639 -3.264016,-0.64606 -4.524588,0.0942 -0.565828,0.33227 -1.403226,1.17611 -1.715032,1.7282 -0.545137,0.96524 -0.525222,0.64459 -0.59569,9.59114 -0.07595,9.64288 -0.04162,9.26993 -1.040301,11.29992 -1.731157,3.51886 -5.032391,5.59056 -8.857077,5.55828 -0.58585,-0.005 -1.412443,-0.0831 -1.836878,-0.17363 z m 60.931336,0.0503 c -0.10152,-0.10152 -0.13229,-3.43168 -0.13229,-14.3181 0,-11.72516 -0.0256,-14.20708 -0.14778,-14.30846 -0.1028,-0.0853 -1.73872,-0.13137 -5.37435,-0.1513 l -5.22657,-0.0286 -0.0298,-2.37004 c -0.0268,-2.13086 -0.0108,-2.38397 0.15887,-2.50803 0.29318,-0.21438 26.19503,-0.20083 26.37315,0.0138 0.088,0.10598 0.11698,0.86292 0.0962,2.50803 l -0.0298,2.35624 -5.34679,0.0551 -5.34679,0.0551 -0.028,14.26568 c -0.0202,10.32008 -0.0621,14.30678 -0.1513,14.41428 -0.16794,0.20236 -4.61362,0.21742 -4.81473,0.0163 z M 1.5309897,264.64419 c -0.039966,-0.0647 -0.049023,-0.14122 -0.020125,-0.17012 0.028897,-0.0289 0.081917,0.024 0.1178222,0.11758 0.074544,0.19426 0.011013,0.22843 -0.097697,0.0525 z m -4.6807967,-0.21315 c 0,-0.0606 0.052538,-0.11024 0.1167497,-0.11024 0.064212,0 0.086089,0.0496 0.048615,0.11024 -0.037474,0.0606 -0.090011,0.11025 -0.1167496,0.11025 -0.026738,0 -0.048615,-0.0496 -0.048615,-0.11025 z m 4.0238716,-0.66146 c -0.0374738,-0.0606 -0.0155972,-0.11024 0.048615,-0.11024 0.0642122,0 0.1167496,0.0496 0.1167496,0.11024 0,0.0606 -0.021877,0.11025 -0.048615,0.11025 -0.0267384,0 -0.0792758,-0.0496 -0.1167496,-0.11025 z m -3.3624132,-0.22048 c 0,-0.0606 0.052537,-0.11025 0.1167496,-0.11025 0.064212,0 0.086089,0.0496 0.048615,0.11025 -0.037474,0.0606 -0.090011,0.11024 -0.1167496,0.11024 -0.026738,0 -0.048615,-0.0496 -0.048615,-0.11024 z m 2.70095487,-0.66146 c -0.0374738,-0.0606 -0.0155972,-0.11024 0.048615,-0.11024 0.0642122,0 0.1167496,0.0496 0.1167496,0.11024 0,0.0606 -0.0218766,0.11024 -0.048615,0.11024 -0.0267384,0 -0.0792758,-0.0496 -0.1167496,-0.11024 z m -0.53284108,-0.73495 c -0.0404228,-0.0404 -0.0734957,-0.12476 -0.0734957,-0.18742 0,-0.0691 0.0513479,-0.0626 0.13045391,0.0165 0.0717506,0.0718 0.10482351,0.15608 0.0734957,0.18741 -0.0313278,0.0313 -0.0900322,0.0239 -0.13045392,-0.0165 z m -1.01056169,-0.25724 c 0.037474,-0.0606 0.1177429,-0.11024 0.1783766,-0.11024 0.060634,0 0.079583,0.0496 0.04211,0.11024 -0.037474,0.0606 -0.1177429,0.11024 -0.1783766,0.11024 -0.060634,0 -0.079583,-0.0496 -0.04211,-0.11024 z m 0,-12.67795 c -0.037474,-0.0606 -0.018524,-0.11024 0.04211,-0.11024 0.060634,0 0.1409028,0.0496 0.1783766,0.11024 0.037474,0.0606 0.018524,0.11024 -0.04211,0.11024 -0.060634,0 -0.1409028,-0.0496 -0.1783766,-0.11024 z m 0.93706596,-0.0972 c 0,-0.0606 0.0496094,-0.1409 0.11024305,-0.17838 0.0606337,-0.0375 0.11024306,-0.0185 0.11024306,0.0421 0,0.0606 -0.0496094,0.1409 -0.11024306,0.17838 -0.0606337,0.0375 -0.11024305,0.0185 -0.11024305,-0.0421 z m 0.60633681,-0.89496 c 0.0374738,-0.0606 0.0900112,-0.11024 0.1167496,-0.11024 0.0267384,0 0.048615,0.0496 0.048615,0.11024 0,0.0606 -0.0525374,0.11025 -0.1167496,0.11025 -0.0642122,0 -0.0860888,-0.0496 -0.048615,-0.11025 z m -2.70095487,-0.66796 c 0,-0.0642 0.049609,-0.0861 0.110243,-0.0486 0.060634,0.0375 0.1102431,0.09 0.1102431,0.11675 0,0.0267 -0.049609,0.0486 -0.1102431,0.0486 -0.060634,0 -0.110243,-0.0525 -0.110243,-0.11675 z m 3.3624132,-0.21398 c 0.0374738,-0.0606 0.0900112,-0.11025 0.1167496,-0.11025 0.0267384,0 0.048615,0.0496 0.048615,0.11025 0,0.0606 -0.0525374,0.11024 -0.11674961,0.11024 -0.0642122,0 -0.0860888,-0.0496 -0.048615,-0.11024 z m -4.0238716,-0.66146 c 0,-0.0606 0.049609,-0.11024 0.1102431,-0.11024 0.060634,0 0.1102431,0.0496 0.1102431,0.11024 0,0.0606 -0.049609,0.11024 -0.1102431,0.11024 -0.060634,0 -0.1102431,-0.0496 -0.1102431,-0.11024 z"
         id="path5951"
         inkscape:connector-curvature="0" />
      <path
         style="fill:#5e5e5e;stroke-width:0.11024306"
         d="m -4.5278452,266.52566 c 0.037474,-0.0606 0.090011,-0.11024 0.1167496,-0.11024 0.026738,0 0.048615,0.0496 0.048615,0.11024 0,0.0606 -0.052537,0.11024 -0.1167496,0.11024 -0.064212,0 -0.086089,-0.0496 -0.048615,-0.11024 z m -5.1263021,-4.63021 c 0,-0.0606 0.052537,-0.11024 0.1167496,-0.11024 0.064212,0 0.086089,0.0496 0.048615,0.11024 -0.037474,0.0606 -0.090011,0.11024 -0.1167496,0.11024 -0.026738,0 -0.048615,-0.0496 -0.048615,-0.11024 z M 2.582832,250.59554 c 0,-0.0909 0.019498,-0.16537 0.043327,-0.16537 0.02383,0 0.071882,0.0744 0.1067836,0.16537 0.034901,0.0909 0.015403,0.16536 -0.043327,0.16536 -0.058731,0 -0.1067836,-0.0744 -0.1067836,-0.16536 z m 5.2365451,-1.37804 c 0.037474,-0.0606 0.090011,-0.11024 0.1167496,-0.11024 0.026738,0 0.048615,0.0496 0.048615,0.11024 0,0.0606 -0.052537,0.11024 -0.1167496,0.11024 -0.064212,0 -0.086089,-0.0496 -0.048615,-0.11024 z"
         id="path5941"
         inkscape:connector-curvature="0"
         sodipodi:nodetypes="cssscsscsssscsscsssc" />
    </g>
  </g>
</svg>
