<?xml version="1.0" encoding="UTF-8" standalone="no"?>
<!-- Created with Inkscape (http://www.inkscape.org/) -->

<svg
   xmlns:dc="http://purl.org/dc/elements/1.1/"
   xmlns:cc="http://creativecommons.org/ns#"
   xmlns:rdf="http://www.w3.org/1999/02/22-rdf-syntax-ns#"
   xmlns:svg="http://www.w3.org/2000/svg"
   xmlns="http://www.w3.org/2000/svg"
   xmlns:sodipodi="http://sodipodi.sourceforge.net/DTD/sodipodi-0.dtd"
   xmlns:inkscape="http://www.inkscape.org/namespaces/inkscape"
   width="16px"
   height="16px"
   viewBox="0 0 16 16"
   version="1.1"
   id="SVGRoot"
   inkscape:version="0.92.5 (2060ec1f9f, 2020-04-08)"
   sodipodi:docname="Mongoose.svg">
  <defs
     id="defs815" />
  <sodipodi:namedview
     id="base"
     pagecolor="#ffffff"
     bordercolor="#666666"
     borderopacity="1.0"
     inkscape:pageopacity="0.0"
     inkscape:pageshadow="2"
     inkscape:zoom="16"
     inkscape:cx="-14.75"
     inkscape:cy="8"
     inkscape:document-units="px"
     inkscape:current-layer="layer1"
     showgrid="false"
     inkscape:window-width="1848"
     inkscape:window-height="1136"
     inkscape:window-x="72"
     inkscape:window-y="27"
     inkscape:window-maximized="1"
     inkscape:grid-bbox="true" />
  <metadata
     id="metadata818">
    <rdf:RDF>
      <cc:Work
         rdf:about="">
        <dc:format>image/svg+xml</dc:format>
        <dc:type
           rdf:resource="http://purl.org/dc/dcmitype/StillImage" />
        <dc:title />
      </cc:Work>
    </rdf:RDF>
  </metadata>
  <g
     inkscape:label="Layer 1"
     inkscape:groupmode="layer"
     id="layer1">
    <path
       style="fill:#434343;stroke-width:0.032;fill-opacity:1"
       d="m 6.5746189,10.51994 c -0.00883,-0.023 -0.012128,-0.322202 -0.00733,-0.664883 L 6.576,9.232 6.7954726,9.576 C 6.9161827,9.7652 7.028328,9.92 7.0446848,9.92 c 0.016357,0 0.130095,-0.1548 0.2527523,-0.344 l 0.2230131,-0.344 -0.00822,0.656 -0.00823,0.656 -0.4566656,0.0089 C 6.6944485,10.5598 6.5870216,10.552276 6.5746191,10.51996 Z M 8.5685341,8.9534403 8.56,8.112 H 8.0326202 7.5052406 L 7.2872493,8.5117709 C 7.1673542,8.7316448 7.0577178,8.9230822 7.0436131,8.9371869 7.0295082,8.9512918 6.9135498,8.7677949 6.785928,8.529416 L 6.553888,8.096 H 6.044944 5.536 V 8.5281603 8.960321 L 5.272,8.6961603 C 4.9882195,8.4122074 4.6554483,8.2029254 4.347311,8.1146176 4.0975389,8.0430362 3.5983184,7.9682771 3.3691002,7.9681286 3.1003719,7.9679686 2.5278488,8.0502582 2.254994,8.1282877 1.8539762,8.2429683 1.8679411,8.2214458 2.5135178,7.7298486 3.5092483,6.9716147 4.6315117,6.4308595 5.616,6.2349386 5.792,6.1999133 6.1321824,6.1631747 6.371961,6.1532976 l 0.4359609,-0.017959 0.0374,0.2147683 C 6.919103,6.7737894 7.0874163,7.0999306 7.3943341,7.4139299 7.6893533,7.7157562 8.09504,7.953815 8.416,8.0134483 8.498768,8.0288262 8.466599,8.0048579 8.2927469,7.9216163 7.6804291,7.6284333 7.2575869,7.1781354 7.0546928,6.6031741 6.9740544,6.3746608 6.952311,6.0880557 7.0077542,5.9844589 7.1251725,5.7650614 7.8206141,5.8534301 8.656,6.1938989 8.7115904,6.2165552 8.7145667,6.213295 8.6786518,6.169088 8.6559104,6.141096 8.5297174,6.070913 8.398223,6.0131254 8.2508954,5.9483795 8.1705597,5.8966403 8.1888918,5.8783082 8.240111,5.827089 8.9185619,5.8127584 9.3566093,5.8536432 10.562046,5.966151 12.135521,6.3411808 13.291551,6.7915165 l 0.411551,0.1603213 -0.01749,0.1000809 c -0.06326,0.3620106 -0.05983,0.3667088 0.0555,0.076081 0.05551,-0.1398912 0.126811,-0.1541722 0.257293,-0.051535 0.07586,0.059668 0.08428,0.083311 0.06555,0.184 -0.01182,0.063544 -0.07985,0.2279097 -0.151185,0.3652569 -0.19091,0.3675898 -0.185948,0.3655597 -1.576771,0.64516 -0.984979,0.1980128 -1.524046,0.3308602 -1.591961,0.3923223 -0.06725,0.060864 -0.07015,0.15615 -0.008,0.2647958 0.08359,0.1462179 0.06655,0.1599267 -0.2,0.1609802 C 10.097991,9.0907114 9.5246368,9.1449789 9.36,9.200288 9.1329427,9.276567 8.9029526,9.4309562 8.7955862,9.5791715 8.744913,9.6491238 8.6750166,9.7262752 8.6402608,9.7506192 8.5778784,9.7943133 8.5769587,9.7840938 8.5685341,8.9534403 Z M 10.379155,8.7528477 C 10.348546,8.5295309 10.401394,8.4450634 10.649304,8.3210653 10.767387,8.2620035 11.0296,8.1583578 11.232,8.0907421 c 0.317808,-0.1061703 0.345562,-0.1206554 0.203491,-0.106201 -0.399469,0.040642 -1.132734,0.3481411 -1.179187,0.4944995 -0.02205,0.069488 0.0062,0.2043543 0.06901,0.3289594 0.06251,0.1240941 0.07645,0.1098154 0.05384,-0.055152 z M 8.2427254,7.4277126 C 8.1065696,7.2422317 8.1026947,7.2239629 8.208,7.264 8.317881,7.3057766 8.3090957,7.277137 8.1565267,7.0961994 8.0842163,7.0104435 8.0303478,6.9349856 8.0368189,6.9285146 c 0.00647,-0.00647 0.080034,0.021137 0.1634733,0.061351 C 8.2837315,7.03008 8.352,7.0564342 8.352,7.048431 8.352,7.040431 8.325561,6.995657 8.293247,6.94894 8.1776803,6.781864 8.1781667,6.7773613 8.3060096,6.8307773 8.3719088,6.858312 8.4314413,6.8752256 8.4383034,6.8683632 8.464512,6.8421546 8.1543229,6.5978909 7.9702285,6.4997696 7.7554771,6.3853085 7.447345,6.272 7.3508288,6.272 7.2949139,6.272 7.289536,6.2884966 7.3039018,6.4159498 7.3351974,6.6936022 7.6726422,7.128295 8.0944026,7.4342637 8.2079242,7.5166189 8.3135504,7.584 8.329128,7.584 8.344706,7.584 8.305824,7.513671 8.2427254,7.4277126 Z M 11.649808,6.9430323 c 0.03722,-0.01992 0.06099,-0.0429 0.05282,-0.051067 -0.0571,-0.057103 -1.360915,-0.3064454 -1.535964,-0.2937395 L 10.032,6.608 10.16,6.6517443 c 0.0704,0.024059 0.181036,0.094441 0.245858,0.1564029 0.169301,0.161832 0.347769,0.2031792 0.80121,0.1856237 0.206287,-0.00799 0.40552,-0.030819 0.44274,-0.050739 z"
       id="path1436"
       inkscape:connector-curvature="0" />
  </g>
</svg>
