<?xml version="1.0" encoding="UTF-8" standalone="no"?>
<!-- Created with Inkscape (http://www.inkscape.org/) -->

<svg
   xmlns:dc="http://purl.org/dc/elements/1.1/"
   xmlns:cc="http://creativecommons.org/ns#"
   xmlns:rdf="http://www.w3.org/1999/02/22-rdf-syntax-ns#"
   xmlns:svg="http://www.w3.org/2000/svg"
   xmlns="http://www.w3.org/2000/svg"
   xmlns:sodipodi="http://sodipodi.sourceforge.net/DTD/sodipodi-0.dtd"
   xmlns:inkscape="http://www.inkscape.org/namespaces/inkscape"
   width="16px"
   height="16px"
   viewBox="0 0 16 16"
   version="1.1"
   id="SVGRoot"
   inkscape:version="0.92.5 (2060ec1f9f, 2020-04-08)"
   sodipodi:docname="mongo-new.svg">
  <defs
     id="defs815" />
  <sodipodi:namedview
     id="base"
     pagecolor="#ffffff"
     bordercolor="#666666"
     borderopacity="1.0"
     inkscape:pageopacity="0.0"
     inkscape:pageshadow="2"
     inkscape:zoom="16"
     inkscape:cx="-14.75"
     inkscape:cy="8"
     inkscape:document-units="px"
     inkscape:current-layer="layer1"
     showgrid="false"
     inkscape:window-width="1848"
     inkscape:window-height="1136"
     inkscape:window-x="72"
     inkscape:window-y="27"
     inkscape:window-maximized="1"
     inkscape:grid-bbox="true" />
  <metadata
     id="metadata818">
    <rdf:RDF>
      <cc:Work
         rdf:about="">
        <dc:format>image/svg+xml</dc:format>
        <dc:type
           rdf:resource="http://purl.org/dc/dcmitype/StillImage" />
        <dc:title />
      </cc:Work>
    </rdf:RDF>
  </metadata>
  <g
     inkscape:label="Layer 1"
     inkscape:groupmode="layer"
     id="layer1">
    <path
       style="fill:#434343;stroke-width:0.032;fill-opacity:1"
       d="M 7.9004429,14.344702 7.7528854,14.295523 7.7310336,13.930015 C 7.7074624,13.535753 7.672784,13.304279 7.5943165,13.017442 7.5488794,12.851348 7.5231904,12.817496 7.3094672,12.642083 6.2976352,11.811623 5.5216973,10.718932 5.1512874,9.6028915 4.9199725,8.9059414 4.8474794,8.3793923 4.8755382,7.6 4.92744,6.1583059 5.3270736,4.8693619 6.0710803,3.744 6.452144,3.1676151 6.6552826,2.9393645 7.4225885,2.2254203 7.6036374,2.0569622 7.709457,1.8694768 7.7123706,1.712 7.7138394,1.6325561 7.742935,1.6713147 7.8810733,1.9367405 8.101336,2.3599631 8.144367,2.418123 8.5469107,2.8366744 9.5015667,3.8292928 10.079164,4.8238237 10.46772,6.144 10.809395,7.3048915 10.794925,8.5987107 10.427324,9.7561475 10.091393,10.813867 9.2874448,11.964941 8.435249,12.608355 8.3073261,12.704938 8.2326205,12.793218 8.1687494,12.923279 8.0806227,13.102732 8.08,13.108546 8.08,13.751927 c 0,0.35636 -0.0072,0.646583 -0.016,0.644941 -0.0088,-0.0016 -0.082401,-0.02512 -0.1635571,-0.05217 z"
       id="path2176"
       inkscape:connector-curvature="0" />
  </g>
</svg>
