<?xml version="1.0" encoding="UTF-8" standalone="no"?>
<!-- Created with Inkscape (http://www.inkscape.org/) -->

<svg
   xmlns:dc="http://purl.org/dc/elements/1.1/"
   xmlns:cc="http://creativecommons.org/ns#"
   xmlns:rdf="http://www.w3.org/1999/02/22-rdf-syntax-ns#"
   xmlns:svg="http://www.w3.org/2000/svg"
   xmlns="http://www.w3.org/2000/svg"
   xmlns:sodipodi="http://sodipodi.sourceforge.net/DTD/sodipodi-0.dtd"
   xmlns:inkscape="http://www.inkscape.org/namespaces/inkscape"
   width="16px"
   height="16px"
   viewBox="0 0 16 16"
   version="1.1"
   id="SVGRoot"
   inkscape:version="0.92.5 (2060ec1f9f, 2020-04-08)"
   sodipodi:docname="node.svg">
  <defs
     id="defs10" />
  <sodipodi:namedview
     id="base"
     pagecolor="#ffffff"
     bordercolor="#666666"
     borderopacity="1.0"
     inkscape:pageopacity="0.0"
     inkscape:pageshadow="2"
     inkscape:zoom="16"
     inkscape:cx="-14.6875"
     inkscape:cy="8"
     inkscape:document-units="px"
     inkscape:current-layer="layer1"
     showgrid="false"
     inkscape:window-width="1848"
     inkscape:window-height="1136"
     inkscape:window-x="72"
     inkscape:window-y="27"
     inkscape:window-maximized="1"
     inkscape:grid-bbox="true" />
  <metadata
     id="metadata13">
    <rdf:RDF>
      <cc:Work
         rdf:about="">
        <dc:format>image/svg+xml</dc:format>
        <dc:type
           rdf:resource="http://purl.org/dc/dcmitype/StillImage" />
        <dc:title />
      </cc:Work>
    </rdf:RDF>
  </metadata>
  <g
     inkscape:label="Layer 1"
     inkscape:groupmode="layer"
     id="layer1">
    <path
       style="fill:#434343;stroke-width:0.032;fill-opacity:1"
       d="M 7.694247,14.341988 C 7.4552595,14.259362 5.8203341,13.274437 5.8311408,13.219601 5.8360134,13.194876 5.9696,13.12257 6.128,13.05892 c 0.1584,-0.06365 0.3236042,-0.140746 0.3671203,-0.171324 0.043516,-0.03058 0.1089072,-0.0556 0.1453139,-0.0556 0.036407,0 0.3462727,0.166615 0.6885911,0.370256 0.4021792,0.239252 0.6451443,0.365378 0.6866861,0.356468 C 8.0510704,13.55112 9.1384,12.93252 10.432,12.184019 l 2.352,-1.360911 V 8.016128 5.209144 L 10.4,3.8352771 C 9.0888,3.0796504 7.9943299,2.4669217 7.9678445,2.473658 7.9013795,2.4905623 3.2934742,5.1469162 3.224,5.2083779 3.171483,5.2548378 3.168,5.4294627 3.168,8.016 c 0,2.586507 0.00348,2.761168 0.056,2.807703 0.093648,0.08298 1.3459802,0.793012 1.4855443,0.842253 0.3119504,0.110063 0.6421495,0.02953 0.8166019,-0.199153 L 5.616,11.349015 5.632,8.5359184 C 5.6475731,5.797896 5.6496576,5.7216099 5.7101162,5.6774109 5.7540995,5.6452563 5.8670832,5.632 6.0971565,5.632 c 0.2766361,0 0.3329641,0.00888 0.3790233,0.059779 0.050099,0.055359 0.053423,0.2724355 0.044959,2.936 L 6.512,11.504 6.4388115,11.706519 C 6.3079629,12.068588 6.1298688,12.282719 5.8386474,12.428127 5.6184595,12.538067 5.4406656,12.574364 5.12,12.574838 4.6496522,12.575532 4.3826461,12.473026 3.424,11.923716 2.7173844,11.518822 2.540883,11.37726 2.4258595,11.123162 L 2.352,10.96 V 8.032 5.104 L 2.4358341,4.9252326 C 2.4819428,4.8269104 2.569622,4.6965114 2.6306768,4.6354566 2.7351873,4.5309459 7.3609914,1.8245506 7.6353894,1.707375 7.8172006,1.629736 8.1997146,1.635043 8.3854045,1.717779 8.534655,1.78428 13.129736,4.4393375 13.287925,4.5504774 c 0.128111,0.090007 0.267267,0.307615 0.326074,0.509903 0.04573,0.1572992 0.0504,0.4896285 0.04267,3.038119 L 13.648,10.96 13.57414,11.123162 c -0.04062,0.08974 -0.134222,0.222182 -0.208,0.294316 -0.171019,0.167212 -4.8121019,2.862056 -5.0514866,2.933145 -0.2152473,0.06392 -0.4187331,0.06109 -0.6204064,-0.0086 z M 8.848,10.652791 C 8.0112758,10.55042 7.4270925,10.241263 7.1743542,9.7670778 6.9824621,9.4070509 6.9087088,8.902265 7.0378963,8.8331258 c 0.077868,-0.041674 0.6586573,-0.043644 0.735544,-0.0025 0.036439,0.019501 0.072474,0.1024464 0.099181,0.2282947 0.04852,0.228639 0.1908614,0.4588621 0.3493686,0.5650707 C 8.5926909,9.8723853 9.6961866,9.933607 10.359857,9.7426038 10.553086,9.686993 10.742236,9.535185 10.804767,9.3855274 10.828545,9.3286176 10.848,9.2034976 10.848,9.1074826 10.848,8.6939523 10.570249,8.5841632 9.056,8.3991414 7.7212294,8.2360496 7.1977478,7.8823085 7.1446448,7.1075485 7.0824234,6.1997555 7.6768173,5.6447642 8.8655885,5.5006874 c 0.3592713,-0.043543 1.0339043,-0.00271 1.4059265,0.085097 0.502785,0.1186698 0.949048,0.4403479 1.12956,0.8142154 0.16167,0.3348448 0.231278,0.7520342 0.138345,0.8291619 -0.02949,0.024477 -0.167112,0.033925 -0.406637,0.027918 L 10.770725,7.248 10.702241,7.0489456 C 10.567471,6.6572294 10.403102,6.5004944 10,6.3793178 9.8503885,6.334343 9.6984966,6.32168 9.312,6.32196 8.5987472,6.3224752 8.2968077,6.4185965 8.1253952,6.6997066 8.0492576,6.824569 8.0431462,7.0919869 8.1141146,7.1933082 8.230392,7.3593178 8.62668,7.4681034 9.536,7.5836323 c 0.658058,0.083606 1.192004,0.2005095 1.504,0.3292896 0.494469,0.2040983 0.736489,0.5786496 0.73562,1.138449 -8.8e-4,0.5675225 -0.231414,0.9751931 -0.715543,1.2653551 -0.20657,0.123807 -0.574373,0.254042 -0.860195,0.304586 -0.2758167,0.04877 -1.0610682,0.06706 -1.351882,0.03148 z"
       id="path4611"
       inkscape:connector-curvature="0" />
  </g>
</svg>
