<?xml version="1.0" encoding="UTF-8" standalone="no"?>
<!-- Created with Inkscape (http://www.inkscape.org/) -->

<svg
   xmlns:dc="http://purl.org/dc/elements/1.1/"
   xmlns:cc="http://creativecommons.org/ns#"
   xmlns:rdf="http://www.w3.org/1999/02/22-rdf-syntax-ns#"
   xmlns:svg="http://www.w3.org/2000/svg"
   xmlns="http://www.w3.org/2000/svg"
   xmlns:sodipodi="http://sodipodi.sourceforge.net/DTD/sodipodi-0.dtd"
   xmlns:inkscape="http://www.inkscape.org/namespaces/inkscape"
   width="16px"
   height="16px"
   viewBox="0 0 16 16"
   version="1.1"
   id="SVGRoot"
   inkscape:version="0.92.5 (2060ec1f9f, 2020-04-08)"
   sodipodi:docname="react.svg">
  <defs
     id="defs10" />
  <sodipodi:namedview
     id="base"
     pagecolor="#ffffff"
     bordercolor="#666666"
     borderopacity="1.0"
     inkscape:pageopacity="0.0"
     inkscape:pageshadow="2"
     inkscape:zoom="16"
     inkscape:cx="-14.6875"
     inkscape:cy="8"
     inkscape:document-units="px"
     inkscape:current-layer="layer1"
     showgrid="false"
     inkscape:window-width="1848"
     inkscape:window-height="1136"
     inkscape:window-x="72"
     inkscape:window-y="27"
     inkscape:window-maximized="1"
     inkscape:grid-bbox="true" />
  <metadata
     id="metadata13">
    <rdf:RDF>
      <cc:Work
         rdf:about="">
        <dc:format>image/svg+xml</dc:format>
        <dc:type
           rdf:resource="http://purl.org/dc/dcmitype/StillImage" />
        <dc:title />
      </cc:Work>
    </rdf:RDF>
  </metadata>
  <g
     inkscape:label="Layer 1"
     inkscape:groupmode="layer"
     id="layer1">
    <path
       style="fill:#434343;stroke-width:0.032;fill-opacity:1"
       d="M 5.079503,13.631325 C 4.6180269,13.514397 4.286656,13.095671 4.1564861,12.464986 4.0502445,11.950237 4.0858739,11.087234 4.2416416,10.402376 4.2705245,10.275388 4.2891709,10.167654 4.2830778,10.162967 4.276985,10.15828 4.1175494,10.101735 3.928777,10.037313 2.7789108,9.6448992 1.9366438,9.0220442 1.6930534,8.384 1.5897833,8.1135011 1.6165691,7.7350035 1.7587268,7.456 1.8897757,7.1987987 2.2595189,6.820479 2.5860571,6.609479 2.9135976,6.3978314 3.4793475,6.1317603 3.9084102,5.9875786 4.3311181,5.8455325 4.3023949,5.9147888 4.1886003,5.312 4.0899325,4.7893408 4.0797939,3.7980333 4.169487,3.4432144 4.3484662,2.7351885 4.7279898,2.3737431 5.3253725,2.3423885 5.6989574,2.3227804 6.0256509,2.4106241 6.544,2.670062 6.9611693,2.8788587 7.3794883,3.1674928 7.7841587,3.5257539 l 0.2161584,0.191369 0.2894218,-0.2501351 c 0.5729005,-0.4951333 1.1365878,-0.8478077 1.6368016,-1.024075 0.1773165,-0.062484 0.3195535,-0.086181 0.5914635,-0.09854 0.346987,-0.015772 0.36422,-0.013337 0.56,0.079148 0.509608,0.2407343 0.774652,0.7848836 0.816372,1.6760535 0.02053,0.4384816 -0.02168,0.9395757 -0.121004,1.4364259 -0.03342,0.1672 -0.0609,0.3130906 -0.06107,0.3242013 -1.6e-4,0.01111 0.06784,0.03736 0.151128,0.058331 0.08329,0.020971 0.330287,0.1091152 0.548892,0.1958742 0.934475,0.3708714 1.544871,0.8219447 1.834432,1.3556176 C 14.345801,7.652575 14.352,7.682848 14.352,7.984 c 0,0.2915862 -0.0085,0.3370358 -0.096,0.5118618 -0.121546,0.2429161 -0.489362,0.6313129 -0.803552,0.848512 -0.317552,0.2195235 -0.902937,0.506624 -1.340448,0.6574192 -0.1936,0.06673 -0.356424,0.124446 -0.361831,0.128262 -0.0054,0.0038 0.01925,0.157616 0.05479,0.341776 0.196239,1.016884 0.152632,1.884717 -0.124635,2.480442 -0.121336,0.260698 -0.371419,0.524308 -0.585863,0.617552 -0.206218,0.08967 -0.58561,0.117529 -0.862661,0.06335 C 9.6617251,13.521694 8.9610205,13.119653 8.2596198,12.501605 L 8.0232397,12.293316 7.7608179,12.522658 C 7.2142595,13.000319 6.5358563,13.410202 6.032,13.567189 c -0.2526432,0.07872 -0.7600995,0.112885 -0.952497,0.06414 z m 0.6897687,-0.558917 c 0.5110057,-0.1331 1.0634441,-0.46063 1.6629456,-0.985929 L 7.6484349,11.897024 7.4730547,11.707592 C 7.3113296,11.53291 6.9071718,11.032903 6.6489139,10.688 L 6.541089,10.544 6.1745446,10.503994 c -0.2015996,-0.022 -0.5818259,-0.076 -0.8449472,-0.119997 -0.2631216,-0.044 -0.4890134,-0.06919 -0.5019817,-0.05599 -0.0472,0.04804 -0.1583805,0.693977 -0.1814733,1.054328 -0.057454,0.896547 0.1067926,1.496798 0.4578576,1.673274 0.1549459,0.07789 0.4063635,0.08424 0.6652717,0.0168 z m 5.0877563,0.0035 c 0.487006,-0.208376 0.661044,-1.251893 0.416941,-2.499941 -0.02754,-0.1408 -0.05999,-0.267021 -0.07211,-0.280491 -0.01212,-0.01347 -0.157899,0.0033 -0.323949,0.03727 -0.304501,0.06229 -0.840767,0.142707 -1.2014344,0.180161 l -0.1955255,0.0203 -0.3529462,0.469378 c -0.1941207,0.258157 -0.4337341,0.561904 -0.5324746,0.674994 -0.09874,0.113089 -0.17856,0.213889 -0.1773763,0.224 0.0033,0.02821 0.436575,0.399206 0.669848,0.57356 0.6833773,0.510775 1.405889,0.756141 1.769028,0.600764 z M 8.1477261,11.360089 c 0.063558,-0.07035 0.2295408,-0.27195 0.3688509,-0.448 L 8.7698682,10.592 H 8.0142451 7.2586221 l 0.1051795,0.136 c 0.2353322,0.304291 0.6303456,0.76 0.658776,0.76 0.00527,0 0.061591,-0.05756 0.1251485,-0.127911 z M 8.9365334,10.027527 9.1787232,10.007055 9.4012848,9.6515274 C 9.6761664,9.2124224 9.9185421,8.7930362 10.156173,8.3453325 L 10.338054,8.0026646 10.209549,7.7470813 C 10.028416,7.386825 9.6302432,6.6981091 9.3820237,6.3157184 L 9.1715245,5.9914371 9.0097622,5.9719968 c -0.210182,-0.02526 -1.8093424,-0.02526 -2.0195244,0 L 6.8284755,5.9914371 6.6182496,6.3157184 C 6.3804941,6.6824656 6.1102714,7.1514006 5.8472179,7.6537414 L 5.668263,7.9954829 5.8458275,8.3417414 c 0.2168634,0.4228932 0.4568922,0.8387648 0.7576954,1.3127751 0.2115536,0.3333696 0.2354016,0.3593655 0.3399945,0.3706205 0.2007501,0.0216 1.7438404,0.02345 1.993016,0.0024 z M 7.7242458,9.0916752 C 7.4253856,9.0142138 7.1226877,8.7675318 6.977656,8.4832461 6.8422915,8.2179094 6.8427328,7.7492256 6.9785968,7.4829078 7.0874218,7.2695936 7.3087702,7.0576195 7.5285011,6.9562934 7.6986582,6.8778272 7.7680032,6.864297 7.999999,6.864297 c 0.2319959,0 0.3013408,0.01353 0.471498,0.091996 0.3455097,0.1593277 0.5968905,0.4898439 0.6426864,0.8450055 0.089983,0.6978547 -0.3716413,1.2731395 -1.0470279,1.3048243 -0.133736,0.00627 -0.2880457,-2.24e-4 -0.3429107,-0.014448 z M 5.8587162,9.48 C 5.7038454,9.2204 5.5388358,8.9324 5.4920275,8.84 5.4452195,8.7476 5.3994528,8.672 5.3903238,8.672 5.3534854,8.672 4.992,9.6433933 4.992,9.7423859 c 0,0.024869 0.120296,0.059608 0.328,0.094719 C 6.2613616,9.9962378 6.1935187,10.04121 5.8587162,9.48 Z m 4.7158678,0.3563949 c 0.245622,-0.043393 0.452416,-0.084728 0.459543,-0.091855 0.02706,-0.027061 -0.372334,-1.1052377 -0.408931,-1.1039212 -0.0095,3.392e-4 -0.07982,0.1191401 -0.156354,0.264 -0.07654,0.1448598 -0.238538,0.4304729 -0.36,0.6346956 C 9.9873786,9.7435373 9.888,9.9190317 9.888,9.9293024 c 0,0.023305 0.122974,0.00666 0.686584,-0.092907 z M 4.5746861,9.24 C 4.6485254,9.0244 4.7884115,8.6610349 4.8855437,8.4325216 5.0878698,7.9565296 5.0939693,8.0573507 4.8235613,7.408 4.7282826,7.1792 4.6102154,6.8696 4.5611901,6.72 4.5121645,6.5704 4.4613603,6.4362397 4.4482922,6.4218659 4.3880736,6.3556314 3.4981258,6.6989754 3.0568116,6.9587024 2.5801188,7.2392512 2.2569791,7.5712666 2.1790869,7.860536 2.0364836,8.3901245 2.8597699,9.0942259 4.1414202,9.5387885 4.283639,9.5881194 4.4090973,9.629273 4.4202163,9.6302406 4.4313354,9.631207 4.5008467,9.4556 4.5746861,9.24 Z M 11.940903,9.4851194 C 12.649373,9.2393014 13.190462,8.9225408 13.546374,8.545255 13.789291,8.2877507 13.880566,8.0692339 13.825464,7.8771034 13.682876,7.3799299 12.973644,6.870752 11.925347,6.5129562 11.734688,6.4478819 11.574008,6.3994458 11.568281,6.4053197 c -0.0057,0.00587 -0.0773,0.1953987 -0.159056,0.4211661 -0.08175,0.225767 -0.221303,0.5806944 -0.310108,0.7887273 l -0.161462,0.3782419 0.133548,0.2965917 c 0.160733,0.3569667 0.355193,0.8450019 0.432703,1.0859533 0.05878,0.1827248 0.07626,0.224 0.09489,0.224 0.0061,0 0.160008,-0.051696 0.342111,-0.1148806 z M 5.5527533,7.048 C 5.6355613,6.894 5.7967437,6.6122758 5.9109363,6.4219462 6.025129,6.2316166 6.1134832,6.0712147 6.1072797,6.0654976 6.0815754,6.0418093 5.0300816,6.2239443 4.9954304,6.2580874 4.969561,6.2835773 5.3527382,7.328 5.3879594,7.328 c 0.00783,0 0.081986,-0.126 0.1647939,-0.28 z M 10.810782,6.8788915 c 0.09199,-0.2470096 0.175386,-0.4897328 0.185317,-0.5393846 0.01636,-0.081822 0.008,-0.092354 -0.08902,-0.1124679 -0.262763,-0.054458 -1.0027653,-0.1740172 -1.0131,-0.1636825 -0.00629,0.00629 0.1025318,0.2034115 0.241832,0.4380422 0.1393,0.2346307 0.300936,0.5166013 0.35919,0.6266013 0.05826,0.11 0.115504,0.2 0.12722,0.2 0.01172,0 0.09657,-0.2020989 0.188563,-0.4491085 z M 5.392,5.6202243 C 5.6384,5.5776349 5.9959056,5.5246355 6.1864573,5.5024477 L 6.5329146,5.4621059 6.7785869,5.135351 C 6.9137066,4.9556362 7.139401,4.6752403 7.2801296,4.5122499 7.4208582,4.3492592 7.5549408,4.1901533 7.5780906,4.1586813 c 0.037664,-0.051204 0.01579,-0.079783 -0.208,-0.2717511 C 6.6393507,3.2600973 5.9029315,2.8809804 5.4147251,2.8802862 5.0482509,2.8797652 4.8645286,3.0378318 4.7269702,3.472 4.663887,3.6711066 4.6560781,3.7635677 4.6567011,4.304 4.6572227,4.7558656 4.6720499,4.9859584 4.7144413,5.2 4.8087005,5.6759325 4.8282861,5.7334336 4.8896714,5.7144557 4.919552,5.7052176 5.1456,5.6628134 5.392,5.6202243 Z m 5.846707,-0.1804595 c 0.17529,-0.8707693 0.15021,-1.770241 -0.06109,-2.190873 C 11.082991,3.0605117 10.912531,2.9166662 10.738557,2.8783804 10.272672,2.7758548 9.3496525,3.2321283 8.5523037,3.9591043 L 8.3846074,4.112 8.610233,4.368 c 0.124094,0.1408 0.3698582,0.4455139 0.5461427,0.6771421 l 0.3205171,0.4211417 0.1975536,0.021041 C 9.9438355,5.5160178 10.837988,5.657409 10.976,5.6931389 c 0.19365,0.050134 0.203528,0.040607 0.262707,-0.2533741 z M 8.7079693,5.352 C 8.6913142,5.3212 8.5303274,5.1190442 8.3502211,4.9027645 L 8.0227552,4.509529 7.9443834,4.5827645 C 7.8548083,4.6664694 7.4791683,5.1090566 7.3458246,5.288 l -0.089421,0.12 h 0.7409239 c 0.6958448,0 0.7390816,-0.00341 0.7106418,-0.056 z"
       id="path4943"
       inkscape:connector-curvature="0" />
  </g>
</svg>
