<?xml version="1.0" encoding="UTF-8" standalone="no"?>
<!-- Created with Inkscape (http://www.inkscape.org/) -->

<svg
   xmlns:dc="http://purl.org/dc/elements/1.1/"
   xmlns:cc="http://creativecommons.org/ns#"
   xmlns:rdf="http://www.w3.org/1999/02/22-rdf-syntax-ns#"
   xmlns:svg="http://www.w3.org/2000/svg"
   xmlns="http://www.w3.org/2000/svg"
   xmlns:sodipodi="http://sodipodi.sourceforge.net/DTD/sodipodi-0.dtd"
   xmlns:inkscape="http://www.inkscape.org/namespaces/inkscape"
   width="16px"
   height="16px"
   viewBox="0 0 16 16"
   version="1.1"
   id="SVGRoot"
   inkscape:version="0.92.5 (2060ec1f9f, 2020-04-08)"
   sodipodi:docname="SC.svg">
  <defs
     id="defs815" />
  <sodipodi:namedview
     id="base"
     pagecolor="#ffffff"
     bordercolor="#666666"
     borderopacity="1.0"
     inkscape:pageopacity="0.0"
     inkscape:pageshadow="2"
     inkscape:zoom="16"
     inkscape:cx="-5.21875"
     inkscape:cy="8"
     inkscape:document-units="px"
     inkscape:current-layer="layer1"
     showgrid="false"
     inkscape:window-width="1848"
     inkscape:window-height="1136"
     inkscape:window-x="72"
     inkscape:window-y="27"
     inkscape:window-maximized="1"
     inkscape:grid-bbox="true" />
  <metadata
     id="metadata818">
    <rdf:RDF>
      <cc:Work
         rdf:about="">
        <dc:format>image/svg+xml</dc:format>
        <dc:type
           rdf:resource="http://purl.org/dc/dcmitype/StillImage" />
        <dc:title></dc:title>
      </cc:Work>
    </rdf:RDF>
  </metadata>
  <g
     inkscape:label="Layer 1"
     inkscape:groupmode="layer"
     id="layer1">
    <g
       transform="matrix(0.24188975,0,0,0.24188975,43.079924,-42.280962)"
       id="g5201">
      <path
         style="fill:#fefefe;stroke-width:0.17998867"
         d="m -170.79082,207.62123 v -15.74901 h 26.45833 26.45834 v 15.74901 15.74901 h -26.45834 -26.45833 z"
         id="path5217"
         inkscape:connector-curvature="0" />
      <path
         style="fill:#434343;fill-opacity:1;stroke-width:0.17998867"
         d="m -153.43259,215.21784 c -0.0491,-0.12809 -0.0669,-1.44192 -0.0393,-2.91961 l 0.05,-2.68672 1.43991,-1.14581 c 0.79195,-0.6302 2.12836,-1.77306 2.96981,-2.53969 1.68867,-1.53854 3.09913,-2.6015 3.81117,-2.87222 0.34723,-0.13202 0.56151,-0.10907 0.8467,0.0907 0.49531,0.34693 0.48145,0.71001 -0.0684,1.79142 -0.69775,1.37234 -0.45026,1.48378 0.93582,0.42141 1.58265,-1.21304 2.31558,-1.56488 2.71888,-1.30516 0.43945,0.283 0.37678,1.48683 -0.11324,2.175 -0.40484,0.56855 -0.54543,1.84406 -0.20326,1.84406 0.26898,0 1.07175,-0.83889 1.07175,-1.11996 0,-0.13001 0.20287,-0.53493 0.45081,-0.89981 0.45293,-0.66655 1.58947,-4.99521 1.42377,-5.42259 -0.0442,-0.11394 -0.32204,-0.34513 -0.61748,-0.51377 -0.58997,-0.33676 -0.65749,-0.69267 -0.34494,-1.8182 0.21719,-0.78215 0.51018,-0.9634 1.07159,-0.66294 0.27476,0.14705 0.3654,0.32612 0.3031,0.59882 -0.33207,1.45358 -0.34251,1.55897 -0.15451,1.55897 0.1086,0 0.32833,-0.45018 0.48828,-1.0004 0.22474,-0.77306 0.3965,-1.04058 0.75581,-1.17719 0.89892,-0.34177 1.02495,-0.18944 1.13286,1.36935 0.11467,1.65644 -0.002,2.02208 -0.67093,2.1012 -0.44702,0.0529 -0.5302,0.21156 -1.16171,2.21643 -0.37411,1.18771 -0.73329,2.48363 -0.79817,2.87982 -0.0649,0.39619 -0.30261,1.08482 -0.52828,1.53029 -0.84392,1.66587 -1.17021,2.54747 -1.17021,3.16179 0,0.91036 -0.56168,1.88336 -1.9159,3.3189 l -1.18751,1.25882 h -5.20352 c -4.091,0 -5.22262,-0.0498 -5.29289,-0.23289 z m -8.24612,-3.26819 c -2.46116,-1.52962 -4.62728,-2.91909 -4.8136,-3.0877 -0.46652,-0.4222 -0.48283,-2.22804 -0.0238,-2.6321 0.6907,-0.60796 9.45169,-5.86859 9.64616,-5.79214 0.32712,0.12861 1.04535,1.33021 0.98375,1.64581 -0.0306,0.15659 -1.87796,1.40577 -4.10532,2.77595 -2.22736,1.37019 -4.04974,2.58678 -4.04974,2.70354 0,0.11676 1.74025,1.29306 3.86723,2.614 2.12697,1.32094 3.97793,2.51242 4.11324,2.64772 0.1353,0.13531 0.19808,0.39678 0.1395,0.58106 -0.11735,0.36916 -0.94968,1.32499 -1.15379,1.32499 -0.0708,0 -2.14248,-1.25151 -4.60365,-2.78113 z m 29.05859,1.93017 c -0.30419,-0.36903 -0.55307,-0.76145 -0.55307,-0.87205 0,-0.32183 0.41302,-0.60842 4.53982,-3.15018 2.49126,-1.53441 3.84732,-2.47068 3.73749,-2.58051 -0.0948,-0.0948 -1.97573,-1.28241 -4.17984,-2.63913 -2.20411,-1.35672 -4.03248,-2.59104 -4.06305,-2.74294 -0.0626,-0.31095 0.66115,-1.51048 0.98906,-1.63932 0.11744,-0.0461 2.06132,1.0547 4.31973,2.44633 6.10252,3.76035 5.53779,3.29938 5.59265,4.56519 0.0256,0.59068 -0.0149,1.1646 -0.09,1.27537 -0.15726,0.23198 -9.38506,6.00821 -9.59838,6.00821 -0.0777,0 -0.39022,-0.30193 -0.69441,-0.67097 z"
         id="path5215"
         inkscape:connector-curvature="0" />
      <path
         style="fill:#434343;fill-opacity:1;stroke-width:0.17998867"
         d="m -150.18212,215.10239 c -0.30466,-0.12107 -0.1016,-0.30581 1.32145,-1.20227 2.07819,-1.30917 6.31789,-4.45055 7.42338,-5.50032 0.17454,-0.16574 0.49233,-0.395 0.70619,-0.50945 0.21386,-0.11446 0.51274,-0.50531 0.66417,-0.86857 0.15144,-0.36326 0.42725,-0.87432 0.61292,-1.13569 0.3535,-0.49762 1.45496,-4.8984 1.31583,-5.25725 -0.0442,-0.11394 -0.32204,-0.34513 -0.61748,-0.51377 -0.58997,-0.33676 -0.65749,-0.69267 -0.34494,-1.8182 0.21732,-0.78262 0.51018,-0.9634 1.07283,-0.66228 0.40845,0.2186 0.40688,0.15717 0.0448,1.75216 -0.0518,0.22826 -0.006,0.40497 0.10403,0.40497 0.10776,0 0.32681,-0.45018 0.48676,-1.0004 0.22474,-0.77306 0.3965,-1.04058 0.75581,-1.17719 0.89892,-0.34177 1.02495,-0.18944 1.13286,1.36935 0.11467,1.65644 -0.002,2.02208 -0.67093,2.1012 -0.44702,0.0529 -0.5302,0.21156 -1.16171,2.21643 -0.37411,1.18771 -0.73329,2.48363 -0.79817,2.87982 -0.0649,0.39619 -0.30387,1.08482 -0.53107,1.53029 -0.22721,0.44547 -0.60308,1.25542 -0.83526,1.79989 -0.23218,0.54446 -0.4829,1.01693 -0.55715,1.04993 -0.0742,0.033 -0.13499,0.18149 -0.13499,0.32998 0,0.14849 -0.10124,0.23455 -0.22498,0.19124 -0.12374,-0.0433 -0.57226,0.16834 -0.9967,0.47033 -0.55017,0.39146 -0.99868,0.55675 -1.56239,0.57578 -0.72616,0.0245 -0.91649,0.1444 -2.33203,1.46879 -1.50668,1.40966 -1.56624,1.4447 -2.64874,1.55784 -1.35439,0.14156 -1.76007,0.13197 -2.22453,-0.0526 z m -3.06345,-0.5682 c -0.0672,-0.30611 -0.0699,-0.89332 -0.006,-1.30492 0.11334,-0.72853 0.18117,-0.79108 2.56089,-2.36152 2.5204,-1.66328 3.92004,-2.80038 4.56933,-3.71223 0.47236,-0.66336 0.3876,-0.65878 -0.47356,0.0256 -0.47608,0.37834 -0.86268,0.53857 -1.23967,0.5138 -1.06413,-0.0699 -1.23645,0.0347 -3.21297,1.9512 l -1.99548,1.93488 -0.14051,-0.79636 c -0.16737,-0.9486 -0.15604,-0.96507 1.5449,-2.24524 0.7076,-0.53256 1.84099,-1.58777 2.51863,-2.34492 1.21106,-1.35314 3.01188,-2.79585 3.92153,-3.1417 0.3441,-0.13083 0.55971,-0.1074 0.84398,0.0917 0.50978,0.35707 0.48291,0.67512 -0.17013,2.01367 -0.30356,0.62223 -0.51244,1.22849 -0.46418,1.34724 0.0483,0.11875 0.0942,0.0607 0.10197,-0.12907 0.008,-0.18974 0.0636,-0.29557 0.12402,-0.23517 0.0604,0.0604 0.64469,-0.30017 1.29845,-0.80124 1.55138,-1.18907 2.29376,-1.54516 2.69618,-1.29326 0.44446,0.27823 0.4609,1.14066 0.0356,1.8647 -0.20354,0.34647 -0.41781,0.7717 -0.47614,0.94494 -0.0583,0.17324 -0.17761,0.31498 -0.26506,0.31498 -0.0875,0 -0.159,0.12627 -0.159,0.2806 0,0.15433 -0.0771,0.23293 -0.17143,0.17465 -0.0943,-0.0583 -0.54564,0.17968 -1.003,0.52879 -0.71546,0.54613 -0.95285,0.62947 -1.70025,0.59695 -0.8384,-0.0365 -0.91793,0.006 -2.28179,1.21116 -0.77721,0.68692 -2.31492,2.12159 -3.41713,3.18815 -2.22835,2.15628 -2.81116,2.4214 -3.03931,1.38263 z"
         id="path5213"
         inkscape:connector-curvature="0"
         sodipodi:nodetypes="cscccccscccscssccccccscccscccccsccccccccccccccccccssccccscc" />
      <path
         style="fill:#a2a2a2;stroke-width:0.17998867"
         d="m -149.55216,215.09039 c 0,-0.0992 0.7897,-0.76178 1.75489,-1.47242 0.96519,-0.71063 2.64584,-2.05414 3.73477,-2.98557 2.958,-2.53015 3.00044,-2.56493 3.37397,-2.76483 0.19045,-0.10193 0.47017,-0.48253 0.6216,-0.84579 0.15144,-0.36326 0.42725,-0.87432 0.61292,-1.13569 0.3535,-0.49762 1.45496,-4.8984 1.31583,-5.25725 -0.0442,-0.11394 -0.32204,-0.34513 -0.61748,-0.51377 -0.58997,-0.33676 -0.65749,-0.69267 -0.34494,-1.8182 0.21732,-0.78262 0.51018,-0.9634 1.07283,-0.66228 0.40845,0.2186 0.40688,0.15717 0.0448,1.75216 -0.0518,0.22826 -0.006,0.40497 0.10403,0.40497 0.10776,0 0.32681,-0.45018 0.48676,-1.0004 0.22474,-0.77306 0.3965,-1.04058 0.75581,-1.17719 0.89892,-0.34177 1.02495,-0.18944 1.13286,1.36935 0.11467,1.65644 -0.002,2.02208 -0.67093,2.1012 -0.44702,0.0529 -0.5302,0.21156 -1.16171,2.21643 -0.37411,1.18771 -0.73329,2.48363 -0.79817,2.87982 -0.0649,0.39619 -0.30387,1.08482 -0.53107,1.53029 -0.22721,0.44547 -0.6028,1.25542 -0.83465,1.79989 -0.40597,0.95339 -0.72838,1.43991 -0.95421,1.43991 -0.059,0 -0.5193,0.28348 -1.02299,0.62996 -1.05918,0.72859 -1.0051,0.71919 -1.95397,0.33953 -0.8497,-0.33999 -0.65744,-0.44099 -3.0466,1.60057 -1.55547,1.32916 -2.23228,1.74967 -2.81612,1.74967 -0.14205,0 -0.25827,-0.0812 -0.25827,-0.18036 z m -3.68895,-1.07824 c -0.27618,-0.44687 0.28592,-1.01828 3.02352,-3.07365 2.74191,-2.0586 4.80517,-3.84744 4.80517,-4.16607 0,-0.29911 -0.51952,-0.11805 -1.18988,0.41468 -0.60644,0.48195 -0.79452,0.54062 -1.41496,0.4414 -0.39355,-0.0629 -0.86025,-0.24537 -1.03711,-0.40543 -0.29824,-0.2699 -0.35682,-0.25949 -0.80744,0.14356 -0.4758,0.42556 -0.47483,0.42045 0.0469,-0.24672 1.19741,-1.53126 2.02329,-2.37067 3.06106,-3.11121 1.4593,-1.04133 1.91327,-1.20484 2.39955,-0.86424 0.50978,0.35707 0.48291,0.67512 -0.17013,2.01367 -0.30356,0.62223 -0.51245,1.22849 -0.46418,1.34724 0.0483,0.11875 0.0942,0.0607 0.10197,-0.12907 0.008,-0.18974 0.0636,-0.29557 0.12402,-0.23517 0.0604,0.0604 0.64469,-0.30017 1.29845,-0.80124 1.55138,-1.18907 2.29376,-1.54516 2.69618,-1.29325 0.40137,0.25126 0.48183,1.02566 0.17056,1.64176 -0.58001,1.14803 -1.06666,1.84282 -1.29078,1.84282 -0.0557,0 -0.47267,0.28349 -0.92658,0.62996 -0.91407,0.69773 -1.43265,0.77261 -2.34669,0.33887 -0.73869,-0.35053 -0.3229,-0.61633 -4.41815,2.82438 -3.49965,2.94031 -3.50356,2.94319 -3.66146,2.68771 z m 0.0892,-4.09775 c 0,-0.0821 0.42522,-0.46526 0.94494,-0.8514 1.4381,-1.06847 1.57021,-1.11292 0.58496,-0.19683 -0.97143,0.90324 -1.5299,1.28589 -1.5299,1.04823 z"
         id="path5211"
         inkscape:connector-curvature="0"
         sodipodi:nodetypes="cccccccscccscsscccccscccsccccsccccccccccccccsccsccscss" />
      <path
         style="fill:#434343;fill-opacity:0;stroke-width:0.17998867"
         d="m -149.55216,215.08968 c 0,-0.0996 0.9112,-0.85966 2.02488,-1.68904 1.11368,-0.82939 2.83482,-2.21277 3.82475,-3.07419 0.98994,-0.86142 2.18235,-1.81442 2.64981,-2.11778 0.56843,-0.36889 0.91458,-0.7475 1.04518,-1.14322 0.1074,-0.32541 0.36545,-0.80801 0.57345,-1.07245 0.35085,-0.44602 1.39213,-4.33054 1.39696,-5.21134 10e-4,-0.21281 -0.21832,-0.48533 -0.53686,-0.66659 -0.62192,-0.35389 -0.71054,-1.00386 -0.27803,-2.03902 0.28834,-0.69009 0.41092,-0.74076 0.90975,-0.376 0.30302,0.22157 0.31635,0.32513 0.1244,0.96582 -0.25869,0.86342 -0.26979,1.12585 -0.0476,1.12585 0.0921,0 0.3148,-0.45987 0.49497,-1.02193 0.26376,-0.82279 0.4252,-1.05407 0.8285,-1.1869 0.93529,-0.30805 1.04857,-0.12278 0.99105,1.62092 -0.0515,1.56194 -0.0569,1.57841 -0.53384,1.63353 -0.26499,0.0306 -0.55742,0.15212 -0.64984,0.26998 -0.26005,0.33165 -1.4782,4.5397 -1.4782,5.1064 0,0.52661 -1.96221,4.7373 -2.20761,4.7373 -0.0775,0 -0.55303,0.28348 -1.05672,0.62996 -1.05918,0.72859 -1.0051,0.71919 -1.95397,0.33953 -0.8497,-0.33999 -0.65744,-0.44099 -3.0466,1.60057 -1.55547,1.32916 -2.23228,1.74967 -2.81612,1.74967 -0.14205,0 -0.25827,-0.0815 -0.25827,-0.18107 z m -3.68895,-1.07753 c -0.27618,-0.44687 0.28592,-1.01828 3.02352,-3.07365 2.74191,-2.0586 4.80517,-3.84744 4.80517,-4.16607 0,-0.29911 -0.51952,-0.11805 -1.18988,0.41468 -0.60644,0.48195 -0.79452,0.54062 -1.41496,0.4414 -0.39355,-0.0629 -0.86025,-0.24537 -1.03711,-0.40543 -0.29826,-0.26992 -0.35609,-0.25951 -0.79777,0.14356 -0.2619,0.23902 -0.0917,-0.0514 0.37824,-0.64536 0.94684,-1.19673 2.48408,-2.57048 3.65939,-3.27021 1.53712,-0.91514 2.18863,1.2e-4 1.20042,1.68638 -0.25387,0.4332 -0.43611,0.94486 -0.40497,1.13701 0.0485,0.29949 0.23302,0.20759 1.29215,-0.64369 1.43525,-1.15359 2.49907,-1.73987 2.88694,-1.59103 0.35549,0.13641 0.52404,0.68556 0.36727,1.19664 -0.16785,0.54722 -1.21677,2.28337 -1.38338,2.28975 -0.0734,0.003 -0.50482,0.28859 -0.95873,0.63506 -0.91407,0.69773 -1.43265,0.77261 -2.34669,0.33887 -0.73869,-0.35053 -0.3229,-0.61633 -4.41815,2.82438 -3.49965,2.94031 -3.50356,2.94319 -3.66146,2.68771 z m 0.0892,-4.09775 c 0,-0.0821 0.42522,-0.46526 0.94494,-0.8514 1.4381,-1.06847 1.57021,-1.11292 0.58496,-0.19683 -0.97143,0.90324 -1.5299,1.28589 -1.5299,1.04823 z"
         id="path5209"
         inkscape:connector-curvature="0"
         sodipodi:nodetypes="cccccccccccscccccsscccsccccsccccccccscccccscscss" />
      <path
         style="fill:#434343;fill-opacity:0.40594087;stroke-width:0.17998867"
         d="m -149.55216,215.09039 c 0,-0.0992 0.7897,-0.76021 1.75489,-1.46894 0.96519,-0.70872 2.30557,-1.77114 2.97863,-2.36093 1.07694,-0.94372 1.2095,-1.01564 1.10508,-0.59962 -0.0768,0.30598 -0.0156,0.63 0.17349,0.91858 0.28988,0.44241 0.28869,0.44429 -0.15395,0.24261 -0.52765,-0.24041 -0.4804,-0.26925 -2.78375,1.69899 -1.55547,1.32916 -2.23228,1.74967 -2.81612,1.74967 -0.14205,0 -0.25827,-0.0812 -0.25827,-0.18036 z m -3.68895,-1.07824 c -0.27845,-0.45055 0.30158,-1.03402 3.20421,-3.22325 3.23665,-2.44115 4.89089,-3.95708 4.48198,-4.10724 -0.17857,-0.0656 -0.1839,-0.14394 -0.023,-0.33786 0.49228,-0.59315 0.74752,0.11537 0.30045,0.83403 -0.18577,0.29864 -0.17154,0.45506 0.0816,0.8975 0.33729,0.58945 0.3055,0.64014 -0.2025,0.3229 -0.42108,-0.26298 -0.2079,-0.41217 -4.18135,2.92621 -3.49965,2.94031 -3.50356,2.94319 -3.66146,2.68771 z m 12.77838,-3.24112 c 0.0612,-0.099 0.14696,-0.17999 0.19061,-0.17999 0.0437,0 0.0794,0.081 0.0794,0.17999 0,0.099 -0.0858,0.17999 -0.19061,0.17999 -0.10483,0 -0.14055,-0.081 -0.0794,-0.17999 z m -12.6892,-0.85663 c 0,-0.0821 0.42522,-0.46526 0.94494,-0.8514 1.4381,-1.06847 1.57021,-1.11292 0.58496,-0.19683 -0.97143,0.90324 -1.5299,1.28589 -1.5299,1.04823 z m 3.337,-2.77515 c 0.29302,-0.36408 0.57325,-0.66729 0.62275,-0.67382 0.0495,-0.007 0.22797,0.23062 0.3966,0.52698 0.34208,0.60115 0.24913,0.69033 -0.24932,0.23924 -0.31074,-0.28122 -0.36083,-0.27294 -0.81691,0.13499 -0.47037,0.42071 -0.46888,0.41346 0.0469,-0.22739 z m 7.91229,0.212 c 0.0612,-0.099 0.14696,-0.17999 0.19061,-0.17999 0.0437,0 0.0794,0.081 0.0794,0.17999 0,0.099 -0.0858,0.17998 -0.19061,0.17998 -0.10483,0 -0.14055,-0.081 -0.0794,-0.17998 z"
         id="path5207"
         inkscape:connector-curvature="0"
         sodipodi:nodetypes="sccscccsscccccccscccssscscssccccccccsssc" />
    </g>
  </g>
</svg>
