<?xml version="1.0" encoding="UTF-8" standalone="no"?>
<!-- Created with Inkscape (http://www.inkscape.org/) -->

<svg
   xmlns:dc="http://purl.org/dc/elements/1.1/"
   xmlns:cc="http://creativecommons.org/ns#"
   xmlns:rdf="http://www.w3.org/1999/02/22-rdf-syntax-ns#"
   xmlns:svg="http://www.w3.org/2000/svg"
   xmlns="http://www.w3.org/2000/svg"
   xmlns:sodipodi="http://sodipodi.sourceforge.net/DTD/sodipodi-0.dtd"
   xmlns:inkscape="http://www.inkscape.org/namespaces/inkscape"
   width="16px"
   height="16px"
   viewBox="0 0 16 16"
   version="1.1"
   id="SVGRoot"
   inkscape:version="0.92.5 (2060ec1f9f, 2020-04-08)"
   sodipodi:docname="validator.svg">
  <defs
     id="defs10" />
  <sodipodi:namedview
     id="base"
     pagecolor="#ffffff"
     bordercolor="#666666"
     borderopacity="1.0"
     inkscape:pageopacity="0.0"
     inkscape:pageshadow="2"
     inkscape:zoom="16"
     inkscape:cx="-9.3265165"
     inkscape:cy="8"
     inkscape:document-units="px"
     inkscape:current-layer="layer1"
     showgrid="false"
     inkscape:window-width="1848"
     inkscape:window-height="1136"
     inkscape:window-x="72"
     inkscape:window-y="27"
     inkscape:window-maximized="1"
     inkscape:grid-bbox="true" />
  <metadata
     id="metadata13">
    <rdf:RDF>
      <cc:Work
         rdf:about="">
        <dc:format>image/svg+xml</dc:format>
        <dc:type
           rdf:resource="http://purl.org/dc/dcmitype/StillImage" />
        <dc:title></dc:title>
      </cc:Work>
    </rdf:RDF>
  </metadata>
  <g
     inkscape:label="Layer 1"
     inkscape:groupmode="layer"
     id="layer1">
    <path
       style="fill:#434343;fill-opacity:1;stroke-width:0.03058525"
       d="m 3.3049471,13.674319 c 0,-0.448583 0.01108,-0.703462 0.03059,-0.703462 0.01682,0 0.03059,0.02179 0.03059,0.04843 0,0.02665 0.01032,0.04312 0.02294,0.03662 0.178808,-0.09204 0.26696,-0.115656 0.363868,-0.09748 0.220753,0.04141 0.316411,0.208151 0.314198,0.547674 -0.0021,0.328826 -0.129398,0.485834 -0.393771,0.485834 -0.09967,0 -0.171424,-0.01777 -0.208978,-0.05176 -0.03146,-0.02846 -0.06299,-0.05179 -0.07008,-0.05183 -0.0071,-3.1e-5 -0.0084,0.110066 -0.0029,0.24468 0.0084,0.206646 0.0025,0.244755 -0.03823,0.244755 -0.04249,0 -0.04821,-0.08345 -0.04821,-0.703461 z m 0.586491,0.152259 c 0.09126,-0.09126 0.09229,-0.09591 0.08176,-0.36969 -0.01,-0.259717 -0.0161,-0.281943 -0.09648,-0.351065 -0.118454,-0.101862 -0.302379,-0.101281 -0.404939,0.0012 -0.06967,0.06967 -0.07507,0.09703 -0.07507,0.380097 0,0.293093 0.0032,0.307502 0.08059,0.368413 0.124312,0.09779 0.29962,0.0855 0.414147,-0.02903 z m -2.352404,0.151393 c -0.145959,-0.04413 -0.191551,-0.15793 -0.191495,-0.477997 6.1e-5,-0.343366 0.05371,-0.465778 0.229342,-0.523317 0.151133,-0.04951 0.295088,-0.02529 0.403422,0.06791 0.07038,0.06054 0.08438,0.100146 0.09514,0.269256 l 0.01263,0.198277 -0.163839,0.01968 c -0.09011,0.01081 -0.236097,0.0198 -0.324412,0.01994 l -0.160573,2.29e-4 v 0.12234 c 0,0.185783 0.08565,0.256194 0.286411,0.235435 0.08639,-0.0089 0.188043,-0.02587 0.225892,-0.03765 0.09748,-0.03032 0.08889,0.04078 -0.0094,0.07816 -0.1266,0.04813 -0.296805,0.05983 -0.403075,0.02771 z m 0.22386,-0.517748 h 0.226888 v -0.14331 c 0,-0.1959 -0.0833,-0.284885 -0.266696,-0.284885 -0.194153,0 -0.283839,0.09724 -0.283839,0.307736 0,0.131134 0.0081,0.154471 0.04838,0.139024 0.02661,-0.0102 0.150479,-0.01855 0.275267,-0.01855 z m 3.33129,0.52977 c -0.03364,-0.0088 -0.09214,-0.04448 -0.129987,-0.07938 -0.06349,-0.05853 -0.06882,-0.08996 -0.06882,-0.405722 0,-0.296846 0.0082,-0.352674 0.06165,-0.420646 0.07676,-0.09758 0.239084,-0.153508 0.372286,-0.128256 0.19726,0.0374 0.269526,0.142651 0.269526,0.392562 v 0.167622 l -0.237036,0.01942 c -0.13037,0.01067 -0.271444,0.02217 -0.313499,0.02555 -0.105923,0.0085 -0.121033,0.159469 -0.02782,0.277969 0.06095,0.07749 0.08084,0.08384 0.223232,0.07132 0.08598,-0.0076 0.187288,-0.0241 0.225137,-0.03674 0.08272,-0.02763 0.09483,0.02924 0.01529,0.07181 -0.06966,0.03728 -0.311656,0.06489 -0.389961,0.0445 z m 0.424365,-0.560956 c 0.04879,-0.04629 -0.0102,-0.300901 -0.08124,-0.35066 -0.07479,-0.05238 -0.272978,-0.06149 -0.357207,-0.01642 -0.08383,0.04486 -0.166513,0.345094 -0.110476,0.40113 0.02313,0.02312 0.521218,-0.0078 0.548927,-0.03406 z m 0.424397,0.536129 c -0.09595,-0.0417 -0.190862,-0.179018 -0.151169,-0.218711 0.01065,-0.01063 0.0597,0.02381 0.108995,0.07659 0.07406,0.07928 0.112898,0.09595 0.223483,0.09595 0.169105,0 0.269802,-0.06737 0.269802,-0.180505 0,-0.107925 -0.07228,-0.173307 -0.26251,-0.237476 -0.08271,-0.02789 -0.182614,-0.07154 -0.221997,-0.09699 -0.223773,-0.144558 -0.08217,-0.463761 0.20573,-0.463761 0.121834,0 0.256597,0.05341 0.232626,0.0922 -0.01059,0.01714 -0.03214,0.02318 -0.0479,0.01344 -0.05988,-0.03701 -0.275869,-0.01902 -0.3493,0.02911 -0.09092,0.05957 -0.100503,0.170584 -0.02094,0.24259 0.03061,0.02772 0.13662,0.07823 0.235576,0.112271 0.220601,0.0759 0.320472,0.163898 0.320472,0.282377 0,0.128018 -0.05183,0.205975 -0.169698,0.255223 -0.129419,0.05407 -0.245105,0.05336 -0.373169,-0.0023 z m 0.890875,0.0017 c -0.05251,-0.02286 -0.117889,-0.07355 -0.14528,-0.112658 -0.101664,-0.145145 -0.03739,-0.162716 0.09842,-0.0269 0.168944,0.168943 0.49407,0.101619 0.49407,-0.102308 0,-0.09795 -0.07861,-0.161209 -0.291233,-0.234362 -0.215902,-0.07428 -0.320472,-0.164418 -0.320472,-0.276245 0,-0.117496 0.106223,-0.237677 0.230715,-0.261033 0.14617,-0.02743 0.31982,0.0089 0.31982,0.06688 0,0.03439 -0.01798,0.04082 -0.06882,0.02462 -0.202723,-0.06462 -0.389962,0.01913 -0.389962,0.174405 0,0.09656 0.03764,0.123415 0.299063,0.213359 0.202733,0.06975 0.271975,0.126224 0.297555,0.242694 0.05381,0.245004 -0.246638,0.412211 -0.523877,0.29155 z m 2.6860069,0.0148 C 9.3243411,13.950056 9.2372941,13.84755 9.2171311,13.625197 c -0.02251,-0.248211 0.03954,-0.394867 0.1839249,-0.434734 0.111384,-0.03075 0.340954,-0.0023 0.449571,0.05594 0.04625,0.02477 0.06073,0.02292 0.06073,-0.0077 0,-0.08157 -0.09742,-0.175267 -0.215216,-0.206987 -0.156556,-0.04215 -0.161892,-0.101774 -0.0065,-0.07293 0.133944,0.02488 0.237937,0.08624 0.269708,0.159181 0.01238,0.02844 0.0289,0.234054 0.0367,0.456943 l 0.01418,0.405255 H 9.871554 c -0.07627,0 -0.157005,0.0051 -0.179408,0.01136 -0.0224,0.0062 -0.09993,0.0017 -0.17229,-0.0099 z M 9.90479,13.626241 C 9.91349,13.348933 9.91349,13.348699 9.82833,13.30982 9.78148,13.28844 9.672632,13.2636 9.586451,13.25467 9.3627401,13.23146 9.2993051,13.29916 9.3006311,13.559675 c 0.0015,0.288465 0.08567,0.363084 0.3966349,0.351495 l 0.198804,-0.0074 z m 1.413491,0.349828 c -0.05888,-0.01607 -0.138016,-0.06377 -0.175865,-0.105998 -0.06231,-0.06952 -0.06882,-0.107772 -0.06882,-0.404705 0,-0.380828 0.02791,-0.444329 0.217776,-0.495452 0.11124,-0.02995 0.211055,-0.02442 0.37099,0.02063 0.04735,0.01332 0.05352,-0.0099 0.05352,-0.201085 0,-0.171752 0.0094,-0.216159 0.04588,-0.216159 0.03944,0 0.04588,0.09809 0.04588,0.699303 v 0.699303 l -0.141902,0.01945 c -0.172807,0.0237 -0.210806,0.02202 -0.347462,-0.01529 z m 0.390853,-0.477989 0.0085,-0.405673 -0.07934,-0.03016 c -0.132071,-0.05022 -0.336221,-0.03634 -0.416059,0.02826 -0.06513,0.05271 -0.07324,0.08709 -0.08278,0.351151 -0.01054,0.291748 -0.01027,0.293026 0.08324,0.386533 0.08753,0.08753 0.106686,0.09321 0.285846,0.08469 l 0.192029,-0.0091 z m 0.603168,0.488548 c -0.259251,-0.02508 -0.351731,-0.139497 -0.351731,-0.435095 0,-0.225965 0.03396,-0.297115 0.168702,-0.353411 0.110954,-0.04636 0.381005,-0.0161 0.462909,0.05188 0.03186,0.02644 0.04126,0.02248 0.04126,-0.0174 0,-0.104197 -0.06496,-0.170026 -0.201761,-0.204475 -0.08629,-0.02173 -0.127819,-0.04574 -0.109968,-0.06359 0.04724,-0.04724 0.271807,0.03072 0.340675,0.118265 0.05619,0.07144 0.06281,0.122632 0.06281,0.485797 v 0.405945 l -0.160572,0.01049 c -0.08832,0.0057 -0.201863,0.0065 -0.252328,0.0017 z m 0.327438,-0.358142 c 5.34e-4,-0.2711 -7.82e-4,-0.275911 -0.08504,-0.317896 -0.139218,-0.06936 -0.337196,-0.07948 -0.425309,-0.02176 -0.06936,0.04545 -0.07706,0.07049 -0.07706,0.250604 0,0.32305 0.06195,0.381508 0.392844,0.370664 l 0.194039,-0.0064 5.34e-4,-0.275267 z m 1.04144,0.349961 c -0.20674,-0.04379 -0.283102,-0.179283 -0.283102,-0.502351 0,-0.301949 0.05339,-0.431112 0.204256,-0.494149 0.164642,-0.06879 0.340471,-0.03843 0.443192,0.07652 0.14509,0.162372 0.153939,0.6568 0.01464,0.818244 -0.07635,0.08848 -0.237406,0.131718 -0.37899,0.101735 z m 0.288666,-0.133215 c 0.08284,-0.07125 0.08581,-0.08391 0.08581,-0.364561 0,-0.265611 -0.0064,-0.297566 -0.07415,-0.36967 -0.102872,-0.109503 -0.309051,-0.111411 -0.416607,-0.0038 -0.06873,0.06874 -0.07507,0.09863 -0.07507,0.354085 0,0.267597 0.0037,0.282666 0.0894,0.368413 0.115053,0.115055 0.267883,0.121153 0.390609,0.01558 z m -11.6419799,0.07074 c 0.01891,-0.03534 0.08769,-0.14856 0.15285,-0.251607 l 0.118465,-0.187361 -0.08028,-0.138353 c -0.04415,-0.07609 -0.112587,-0.186482 -0.152076,-0.245301 -0.04806,-0.07158 -0.05981,-0.110945 -0.03553,-0.119037 0.04149,-0.01384 0.09714,0.05133 0.2159141,0.252806 0.04585,0.07777 0.09402,0.141157 0.107049,0.140861 0.01303,-3.05e-4 0.07681,-0.08976 0.141733,-0.198804 0.06492,-0.109047 0.137665,-0.198271 0.161648,-0.198271 0.05087,0 0.03454,0.03634 -0.136502,0.303722 -0.05913,0.09243 -0.10743,0.182338 -0.10734,0.19979 9.2e-5,0.01746 0.06432,0.131657 0.142731,0.253786 0.158136,0.246308 0.160402,0.252015 0.100036,0.252015 -0.02339,0 -0.09565,-0.08922 -0.160573,-0.198267 -0.06492,-0.109049 -0.12815,-0.198511 -0.140507,-0.198805 -0.01235,-3.05e-4 -0.07897,0.08893 -0.148021,0.198271 -0.06906,0.10934 -0.145452,0.198801 -0.1697691,0.198801 -0.03544,0 -0.03739,-0.01274 -0.0098,-0.06425 z m 1.925224,-0.44041 c 0,-0.428191 0.0069,-0.504657 0.04588,-0.504657 0.02523,0 0.04588,0.01306 0.04588,0.02903 0,0.01595 0.04959,0.0083 0.1102,-0.01702 0.124154,-0.05187 0.261083,-0.04653 0.279951,0.01092 0.0088,0.02668 -0.02782,0.03823 -0.120823,0.03823 -0.07336,0 -0.163966,0.02141 -0.201352,0.04761 -0.06472,0.04533 -0.06798,0.06805 -0.06798,0.474072 0,0.358686 -0.0073,0.426458 -0.04588,0.426458 -0.03893,0 -0.04588,-0.07646 -0.04588,-0.504657 z m 4.241859,0.04835 c -0.0789,-0.250967 -0.151808,-0.478065 -0.162013,-0.504656 -0.0114,-0.02971 -0.0023,-0.04835 0.02374,-0.04835 0.02734,0 0.09512,0.15953 0.191677,0.451134 l 0.149384,0.451133 0.150582,-0.451133 c 0.09228,-0.276451 0.166174,-0.451134 0.190851,-0.451134 0.02873,0 7.65e-4,0.124666 -0.09761,0.43491 -0.182023,0.574128 -0.182141,0.574402 -0.247034,0.574402 -0.04551,0 -0.08322,-0.08622 -0.199572,-0.456305 z m 1.7222629,-0.247153 c 0,-0.604909 0.0064,-0.703462 0.04588,-0.703462 0.03945,0 0.04588,0.09855 0.04588,0.703462 0,0.604908 -0.0064,0.703458 -0.04588,0.703458 -0.03945,0 -0.04588,-0.09855 -0.04588,-0.703458 z m 0.428194,0.198802 c 0,-0.428191 0.0069,-0.504656 0.04588,-0.504656 0.03893,0 0.04588,0.07646 0.04588,0.504656 0,0.428194 -0.007,0.504656 -0.04588,0.504656 -0.03893,0 -0.04588,-0.07646 -0.04588,-0.504656 z m 2.324478,0.443488 c -0.05729,-0.05729 -0.06117,-0.101952 -0.06117,-0.703462 0,-0.493411 0.0089,-0.642301 0.03823,-0.642344 0.02652,-3.2e-5 0.03823,0.05855 0.03823,0.191158 v 0.191213 l 0.137634,0.01711 c 0.142482,0.01772 0.120307,0.04946 -0.04588,0.06569 l -0.09176,0.009 -0.0087,0.327332 c -0.0087,0.328095 0.03666,0.544347 0.114154,0.544347 0.01768,0 0.03215,0.01376 0.03215,0.03058 0,0.05164 -0.08837,0.03397 -0.152926,-0.03058 z m 1.376336,-0.443488 c 0,-0.428191 0.007,-0.504656 0.04588,-0.504656 0.02523,0 0.04588,0.01266 0.04588,0.02812 0,0.01546 0.05413,0.0069 0.120285,-0.01913 0.121123,-0.04758 0.277323,-0.03509 0.277323,0.02217 0,0.0165 -0.05887,0.03 -0.130827,0.03 -0.07196,0 -0.161418,0.02142 -0.198805,0.04761 -0.06472,0.04533 -0.06798,0.06805 -0.06798,0.474072 0,0.358687 -0.0073,0.426458 -0.04588,0.426458 -0.03893,0 -0.04588,-0.07646 -0.04588,-0.504656 z M 7.5257111,13.185004 c 0,-0.01844 0.127439,-0.03059 0.321145,-0.03059 0.193706,0 0.321145,0.01214 0.321145,0.03059 0,0.01844 -0.127439,0.03058 -0.321145,0.03058 -0.193706,0 -0.321145,-0.01214 -0.321145,-0.03058 z m 3.1196949,-0.596413 c 0,-0.02523 0.02065,-0.04588 0.04588,-0.04588 0.02523,0 0.04588,0.02063 0.04588,0.04588 0,0.02523 -0.02065,0.04588 -0.04588,0.04588 -0.02523,0 -0.04588,-0.02063 -0.04588,-0.04588 z M 7.7703931,11.818459 c -1.295325,-0.09508 -2.448165,-0.61687 -3.333896,-1.508952 -1.977587,-1.991762 -1.977587,-5.225396 0,-7.217157 2.005092,-2.019467 5.2744049,-2.019467 7.2794959,0 1.977588,1.991761 1.977588,5.225395 0,7.217157 -0.862218,0.868399 -1.963484,1.381745 -3.2115539,1.497042 -0.34108,0.03151 -0.444268,0.03318 -0.734046,0.01191 z M 9.483044,7.572729 12.159,4.896644 11.593557,4.330582 11.028114,3.764517 8.9099531,5.882513 6.7917911,8.00051 5.9505821,7.159719 5.1093731,6.318927 l -0.55789,0.557889 -0.55789,0.557889 1.39139,1.402167 c 0.765264,0.771193 1.398301,1.404368 1.406748,1.407056 0.0084,0.0026 1.219538,-1.19935 2.6913129,-2.671199 z"
       id="path8625"
       inkscape:connector-curvature="0" />
  </g>
</svg>
